<mxfile host="app.diagrams.net" agent="Mozilla/5.0 (X11; Ubuntu; Linux x86_64; rv:131.0) Gecko/20100101 Firefox/131.0" version="26.0.6">
  <diagram name="Page-1" id="0wMOmcCSOKJ3H9HU8d35">
    <mxGraphModel dx="1985" dy="1290" grid="1" gridSize="10" guides="1" tooltips="1" connect="1" arrows="1" fold="1" page="1" pageScale="1" pageWidth="850" pageHeight="1100" math="0" shadow="0">
      <root>
        <mxCell id="0" />
        <mxCell id="1" parent="0" />
        <mxCell id="tjEmJSkW9mlfIm7XRwi4-1" value="" style="shape=image;verticalLabelPosition=bottom;labelBackgroundColor=default;verticalAlign=top;aspect=fixed;imageAspect=0;image=data:image/png,iVBORw0KGgoAAAANSUhEUgAABFUAAAStCAYAAACFomS/AAAABHNCSVQICAgIfAhkiAAAABl0RVh0U29mdHdhcmUAZ25vbWUtc2NyZWVuc2hvdO8Dvz4AAAAmdEVYdENyZWF0aW9uIFRpbWUAc2V4IDE3IGphbiAyMDI1IDE3OjMxOjUxlYpfxQAAIABJREFUeJzsnbGOJLmVrk8L+wAy63paVxfQFCC7gFqjMQO0nmD1AuNvCztC2wWlkLW+XkD3CaYACWPsAGMLqGngyr3yJLP3BXSuUc0q5ikyIzIiyBNx4vuBfz4ys6aTZJARzJORJ9+IiApCCCGEEEIIIYQQukg/8W4AQgghhBBCCCGE0BZFUAUhhBBCCCGEEEJoggiqIIQQQgghhBBCCE0QQRWEEEIIIYQQQgihCSKoghBCCCGEEEIIITRBBFUQQgghhBBCCCGEJoigCkIIIYQQQgghhNAEEVRBCCGEEEIIIYQQmiCCKgghhBBCCCGEEEITRFAFIYQQQgghhBBCaIIIqiCEEEIIIYQQQghNEEEVhBBCCCGEEEIIoQkiqIIQQgghhBBCCCE0QQRVEEIIIYQQQgghhCaIoApCCCGEEEIIIYTQBBFUQQghhBBCCCGEEJoggioIIYQQQgghhBBCE0RQBSGEEEIIIYQQQmiCCKoghBBCCCGEEEIITRBBFYQQQgghhBBCCKEJIqiCEEIIIYQQQgghNEEEVRBCCCGEEEIIIYQmiKAKQgghhBBCCCGE0AQRVEEIIYQQQgghhBCaoH/xbgBCCKH16NPHq0X+nZ/+4h+L/DsIoeVVW+esW+Qt5iZCaIviThWEEELP+sOf3y/y7xyO94v8Owih5VVb56xb5C3mJkJoiyKoghBCCCGEEEIIITRBb0REvRuBEEJoPVriK0Dcqo3QulVa56xbtAYxNxFCWxN3qiCEEFpUS32FCCHUT6xbtFYxNxFCaxdBFYQQQieyG9hL6wih9Yt1i9Yq5iZCaGsiqIIQQgghhBBCCCE0QeRUQQgh9Er5d9p/+ot/XFxHCK1frFu0VjE3EUJbEneqIIQQqoqvAiEUX6xbtFYxNxFCWxBBFYQQQq9EMAWh+GLdorWKuYkQ2pIIqiCEEEIIIYQQQghNEDlVEEIIFfXp49XJd9kvrSOE1i/WLVqrmJsIoa1oF0GVw/F+1v//zW9Ob0G0/97Q87wer8fr8Xpber3Hx5f6n76L1z9ej9fj9Z701dvT51nvvN6aXi+fn9fX8frH6/F6vF79+a1pN0GVrR8ohBDqpcfHpw1sKotMryOE1qt8vebrHiFvpfnINQUhtAX9i3cDEEIIxVG+Cd6l9tx3tEldi7zMW+YvWpFsYAUhhNYqgioIIYReyX6CPbaeHtur9PrpFlCENqHHlzjKntctWqE+T0zuoEIIbUEEVRBCCJ1ozld/2Px+Fp+sog3o+vk/CK1LXEsQQlsSQRWEEEJoYXHHCkIIIYTQsCLkP/2JdwMQQgghhBBCCCGEtiiCKgghhBBCCCGEEEITRFAFIYQQQgghhBBCaIIIqiCEEEIIIYQQQghNEEEVhBBCCCGEEEIIoQkiqIIQQgghhBBCCCE0QQRVEEIIIYQQQgghhCaIoApCCCGEEEIIIYTQBBFUQQghhBBCCCGEEJoggioIIYQQQgghhBBCE7SLoMo3v3nv3QSEEEIIIYQQQggF0y6CKgghhBBCCCGEEEJLi6AKQgghhBBCCCGE0AQRVEEIIYQQQgghhBCaoF0EVQ7He+8mIIQQQgghhBBCKJh2EVRBCCGEEEIIIYTQuhThR2UIqiCEEEIIIYQQQghNEEEVhBBCCCGEEEIIoQnaRVAlwi1FCCGEEEIIIYQQWpfeiIh6NyKCSIaLEEIIIYQQQiiSWt+gcDjeb/4miH/xbkAkbX0yIIRQrsdHkevr6fU9SuXl04o3zm1BCCGEEJojbhwYp118/QchhBBCCCGEEEJoae3iTpVetxS9e/eu+WsghFA/PZjz2qX1Herh8xg8MBYIIYQQQnuRRvfheB/iNTDGuKcfH+fV92g1xBhjjDHeqnmPO858/QchhBBCCCGEEEJoggiqIIQQQgghhBBCCE0QQRWEEEIIIYQQQgihCdpFotpeIikhQiiWSFR7sUhUixBCCCE0Wr1+VKalCKosqIeHB+8mIITQYrq7Oz2vXVrfq9IYMBYIIYQQ2rJubv/NuwmbEF//QQghVNQX1/PqCCGEEEIIRRdBFYQQQgghhBBCCKEJ4us/C4rvzyOEQsnmBbm0vkeRUwUhhBBCaFciqLKg+P48Qiia7Hnt0voeRU4VhBBCCEUQOVXGia//IIQQQgghhBBCCE0QQRWEEEIIIYQQQgihCSKoghBCCCGEEEIIITRB5FRZUCQlRAiFEolqLxeJahFCCCGEdiWCKguKpIQIoWgiUe3lIlEtQgghhCKIRLXjtIuv/3zzm/feTUAIIYQQQgghhFAw7SKoghBCCCGEEEIIIbS0CKoghBBCCCGEEEIITRA5VRYUSQkRQqFEotrLRaJahBBCCKFdaRdBlcPxvkteFZISIoSiiUS1l4tEtQghhBCKIBLVjhNf/0EIIYQQQgghhFB3RfhRGYIqCCGEEEIIIYQQQhO0i6//9BLfn0cIhRI5VS4XOVUQQgghhHalNyKi3o2IoF55WxBCqJdUni4SU+t7VBoDxgIhhBBCWxfvcceJr/8ghBBCCCGEEEKouw7He+8mzBZBFYQQQgghhBBCCKEJIqiCEEIIIYQQQgghNEG7SFTb67tgJCUUubt7ePXYtUM7EELzZXOCXFrfo94YIoT66bHw2IcP7M0QQgi1l0b34Xgf4jW24MdHUXk0dft3pcd4nud5fnXPq3lOL3zeu/2ez9uxWVv7eJ7nIz5v9xzFPQjGGOPR5j3uaLs3oLkJqvTz8wbm0dStV74x43me5/lK0OSC573b7/G8fn7ejs1a2sfzPB/5+VEf7GCMMR5t3uOO8y5+UrnH13/4uaknPT6eft3nUfj6D0IIIYTaK99zpK8CXbMJQQihyeI97jjtIqcK6qzPG5jHx9M6QmhbUjnNDXJpfWt6av+0zxkeH9/I//33ny/bIIR2qF//9f9O/58f34hcqzw+vpHrz4z42aHKm02faxFCKJoIqiwoEtWKiDzIu3fv5O7uQT58eCLjgtBG9WDW76X1renhQd69+9Wsf+Lf//pX+fFR5ItrkV+9eyf//v/+n/yff/3X+t/zPM/z/El97hp8fHzz9FnO4+eww+O08MO7NSe4fWDPiRCKoyh3w7h/B6m1yanSz4+Pp99h5vvMGG/XOrO+Nc9p/+Oj6B9//vPnc2D+b/3x5z8/+//yPM/v9fm0bsb+W0MuJqqdkqNl5XsXXUEbMMb7MO+jxznmfZFG5FTpp8fH0+8v27rK9NvrEUJ99XSLuU6ub01z2s/XfxCar//9f/4q19fTzyHpaz+v6p+/FlT/Hz8/b+mq+h02mp4t/Yb00uIr3AjtWryPHie+/oMc9EYOx3vvRiC0aq3n4mI39pfWt6bp7f/1X/8qKvL89Z/8X+Kch9BrffX2vfzpu/tn/m95L4fjf836N+3/fzj+l8h39/LN4xs5fFdZh5+fT3//TeHf6alvfvMfZ88Zb96+XB+qfVqiHW/fc+5CqKL17NPQGkRQZUHx/VaRlFOlWn944AKN0AildfLD9//t14hd5lSZ2v7P/+/Dw/Mj6d+6uf23BRqHUEx99TlAkAIrS/17Ip9vssjq37wdfhP0zdv3TQMVQ/r6y3v55jf/IV9/eS9/+HO5vT3a9/WX9/LNP+VsOxDas1axT0OrEUGVBfWQbab3qru703GwdYTQZfJeP/b1L61vTVPbXzrXpTpBFYTKSkGUpQIZNihzuPD/9w6oIIS2p63ve4bEHmacfuLdALRvpVvnIGzBJO92TG03iinv+QXh2nj47p52fKaIyKeP/+u57NqOn1y5twPCNRKhktyz5bY2WYv72f7yj83Er5/HKnc+fhC24pbm26ePV8/usW5r1pn1rXlO+9O5TuX1r/9sbf5BCCGE8DyTRfz3Ly3do49BxtG9ASEOVJDJMNvpjYVlssrrExGEvbiVeffp49XTT3oO+HHE3+ALPfPcp3I+qLKG+QUhhBDC6cwtMn3vsAX36GOEceQnlRd8DRIVidzdPX2v8MOHd8/1VBYR+fbhQX5vEtX+8P1/y83tv0HYlWuef3/83V+e2/fr3/7y7HrL19fS+vbhQX717t3k+p6UjkU6B35xLc9jsfb5BiGEEMLLmF/XI+vm9t+6vI+O8NUq98hOaxNh62d7Z0rpThX71YY1RJzhPpl/yrAmjv0ExK6vpa0z63ty+rqjCneqQAghhJGZW8R/D9LSPfoYZBzdGxDCQSbDPBe+jnDu6wmfPl6t4sQIob04roFjLtYEVdZjcqpACCGE+2GyiP8epKV79DHIOLo3IISDTIZZVhm+U0WEO1XgeplfINfQjqHzCkGV9ZicKhBCCOE+mFvEfw/S0j36GGQc3RsQwkEmwyyrjAuqlE5GEK6N3vNzzMWaoMp6zJ0qEEII4X6YLOK/B2npHn2MMI67SFTbQwcS1cq3Dw/y46OcJM4sJdK0yZ3WkGwKwqEkZB6vm167JhLVrkfpWKTzYC1RrQjnPQghhHDLtNf0yLq5JVHtWLlHdlqbCFsfq5x+cp4SN5bGykZ4IVw7e8/XMZ+AcKfKesydKhBCCOF+mCzivwdp6R59DDKO7g0IcaCCTIZZVnl5Y2Fpxyo/EUG4Ffaat2Mv1gRV1mNyqkAIIYT7YG4R/z1IS++hjwvZvQHN3WMyMOFe3kzYu1VKY2VPRhBuhb3m75iLNUGV9TgPJHOnCoQQQhibySL+e5CW3kMfl/AucqocOnxP60BOFXKqwN2x1TzOde68Qk6V9eju7kFEnnKpkFMFQgghjEt7TY+sm9v2OVWiyD2yE8FE8fj1H7hPtprHYz4B4U6V9ZicKhBCCOF+mCzivwdp6T30cSG7NyCEmXDTgir52EG4dS41r8derAmqrMfkVIEQQgj3wdwi/nuQlu7RxyDj6N6AEA4yGWZZhTtVIFxqXo+5WBNUWY+5UwVCCCHcD5NF/PcgLd2jj0HG0b0BIRxkMsyyCneqQFi74E75/4bOKwRV1mPuVIEQQgj3wdwi/nuQlu7RxwjjSKLaBV8jeqKiIdlEtSlx47lEtSIkbYSxOXWe5/9fTSSqXY/SsUjnwVqiWu/5CCGEEML5zK/rkXVz2z5RbY/36j3kHtlpbSJsfaxy+rOiOe1Y5dFdCPfCsfN+7Ccg3KmyHnOnCoQQQrgP5hbx34O09B76uJDdG9DcPSYDE+7lzUT+Ro+cKhCWL8SX/F3NBFXW4zyQTE4VCCGEMDaTRfz3IC29hz4uZPcGNHePycCEI6cKhJeytg7GXqwJqqzHeTCFO1UghBDCuMwt4r8Haek99HEhuzeguXtMBiYcv/4D4ZwL87nHayaosh7z6z8QQgjhfpgs4r8Haek99HEJk6h2wdeInqhoSDZRrUg5kaZN7rSGZFMQroElnTuvkKh2PRqbqFaE8x6EEEK4ZdpremTd3JKodqzcIzut3SPCRhSPO1UgXPKTjzGfgHCnynrMnSoQQgjhfpgs4r8HaekefQwyju4NCHGggkyGWVYhpwqES16oh84rBFXWY379B0IIIdwHc4v470Faukcfg4yjewNCHKggk2GWVV7/8g93qkA474J9bs0RVFmPuVMFQggh3A+TRfz3IC3do48RxpGcKgu+RvTv1A0pz6mS8guQUwXCdt/VJafKekROFQghhHAftNf0yLq5JafKWLlHdlqbCFsfq7y+O4U7VSBs9wkId6qsx+lY5D+tnJ7jfAchhBDGYrKI/x6kpXv0Mcg4ujcgxIEKMhlmWYWcKhAueaEeOq8QVFmP82AKOVUghBDCuMwt4r8HaekefQwyju4NCHGggkyGWVbh138gXIpjLtYEVdZjcqpACCGE+2GyiP8epKV79DHIOLo3IMSBCjIZZlmFO1UgXPJCPXReIaiyHvPrPxBCCOE+mFvEfw/S0j36GGEcSVS74GtET1Q0pDxRbdJQoloRkjZCeC4J2rnzColq16OxiWq95xWEEEII5zO/rkfWzS2JasfKPbLT2kTY+liFO1Ug7PkJCHeqrMfcqQIhhBDug7lF/PcgLd2jj0HG0b0BIRxkMsyyyutf/iGnCoTzLtjn1hxBlfWYnCoQQgjhfpgs4r8HaekefQwyju4NCOEgk2GWVU5/VjSnHav8RAQhLF+oh84rBFXWY+5UgRBCCPfB3CL+e5CW7tHHIOPo3oAQDjIZZlnl9d0p3KkC4bwL9rk1R1BlPc4DydypAiGEEMZmsoj/HqSle/QxwjjuIlFtDx1IVDspUa13kikI18hc584rJKpdj+7uHkTkKUHtuUS1Ipz3IIQQwi3TXtMj6+aWRLVj5R7ZaW0ibH2scnmi2jVEmiFcI8d8AsKdKusxOVUghBDC/TBZxH8P0tI9+hhkHN0bEOJABZkMs6zCr/9AuOSFeui8QlBlPSanCoQQQrgP5hbx34O09B76uJDdG9DcPSYDE447VSBsccE+t+YIqqzH3KkCIYQQ7ofJIv57kJbeQx8XsnsDmrvHZGDCcacKhEtx7MWaoMp6zJ0qEEII4T6YW8R/D9LSe+jjEiZR7UI6kKj2VaLalLjxXKJaEZI2QnguCdq58wqJatejdCzSebCWqNZ7XkEIIYRwPvPremTd3LZPVBtF7pGdCCaKd3qniqUdqzy6CyGc9gkId6qsx9ypAiGEEO6DuUX89yAt3aOPQcbRvQEhHGQyzLLK05uJ/I0eOVUgnHfBTmsqt3x2Xsa+fsxIThUIIYQwNpNFln0/tTb36GOQcXRvQAgHmQyzrEJOFQiXvFAfjvcva+jRBC1NAFOG7lqZ8Lya5/XC5+e+/paez4Mp3KkCIYQQxmVukTbvq9biHn2MMI67yKlyON43/y7YgZwqr3KqiJRzPuTfQxQhxwCE576r+9Xb1+euDx/eycPdgzzK6Xp7uHuQd2dyrFz6vM2Rcunzc19/S8/f3T3ItYjotZBTBUIIIQzO/LoeWTe37XOq9Hiv3kPukZ3WJsLWxyrcqQLh0p+AVL/yU1lfS96RoeY5vfD5ua+/peftHUT52JQ+1YIQQgjhNplbZNn3U2vzHvq4kN0b0Nw9JgMTLguqmDeA1qWTEYTQ0AZRCnVyqqzHJzlvhJwqEEIIYWQmiyz3XmqN3kMfF7J7A5q7x2RgwhXuVHks1+2JCEJYvlAfjvdn7/7i13/WZzUsHVPv+QUhhBDC6cwt4r/3aOk99HEhuzeguXtMBibc66CK/dqC/WQ9PxlBCMsX7OKv/2RrrPWanlPfo9XQHk/veQUhhBDC+UwW8d97tPQe+riESVS74GtET1Q0pJSo1upaRN5liTX/9N3983PeSaYgXCNzffX2fTX5cykR9JKyiWgvre9RaQzysbDH1Ht+QQghhHA67TU9sm5uSVQ7Vu6RndbuEWEjipclqazcmSJCThUIxzKZr/9sy2poj6f3vIIQQgjhfCaL+O89WrpHH4OMo3sDQhyoIJNhlrXwWOkNoT0RQQjLF+rD8b78lbrK+lraOrO+R6th6Zh6zy8IIYQQTmduEf+9R0v36GOQcXRvQIgDFWQyzLIWHiu9ISydjCCE5Qv24+PpWiKosm6roT2e3vMKQgghhPOZLOK/92jpHn0MMo7uDQhxoIJMhlnWwmOlN4T2RAQhLF+oD8f7s3enEFRZn9WwdEy95xeEEEIIpzO3iP/eo6V79DHCOJKodsHXiJ6oaEilJJV3dw8iIieJNfNEtSIkbYTwXBI0EtVuS0OJar3nFYQQQgjnM7+uR9bNLYlqx8o9stPaRNj6WAuPkVMFwnmfgJCodltWw9Ix9Z5fEEIIIZzO3CL+e4+W7tHHIOPo3oAQByrIZJhlLTw2FFRZw4kRwjUymaDKtqyG9nh6zysIIYQQzmeyiP/eo6V79DHIOLo3IMSBCjIZZlkLj3GnCoTTL9SHI0GVrVkNS8fUe35BCCGEcDpzi/jvPVq6Rx8jjCM5VRZ8jejfqRtSLaeKzQdBThUIx39Xl5wq2xI5VSCEEML4zK/rkXVzS06VsXKP7LQ2EbY+1sJj3KkC4bxPQEo/S15bX0tbZ9b3aDUsHVPv+QUhhBDC6cwt4r/3aOkefQwyju4NCOEgk2GWtfBY6Q1h6WQEISxfsEs/S15aXy2sM+t7tBra4+k9ryCEEEI4n8ki/nuPlu7RxyDj6N6AEA4yGWZZC4+V3hDaExGEsHyhPhzvz96dQlBlfVbD0jH1nl8QQgghnM7cIv57j5bu0ccg4+jegBAOMhlmWQuPld4Qlk5GEMLyBZtEtduyGtrj6T2vIIQQQjifySL+e4+W7tHHCOO4i0S1PXQgUe2kRLXeSaYgXCNzkah2WxpKVCvCeQ9CCCHcMu01PbJubklUO1bukZ3WJsLWx1p4bChR7RoizRCukcncqbItq6E9nt7zCkIIIYTzmSziv/do6R59DDKO7g0IcaCCTIZZ1sJj/PoPhNMv1IcjQZWtWQ1Lx9R7fkEIIYRwOnOL+O89WnoPfVzI7g1o7h6TgQnHnSoQtrhgE1TZltXQHk/veQUhhBDC+UwW8d97tPQe+riQ3RvQ3D0mAxOOO1UgXIq5Sz9LXltfS1tn1vdoNSwdU+/5BSGEEMLpzC3iv/do6T30cQmTqHYhHUhUO5io9u7uQUTkJFGtCEkbITyXBC0lqk1riUS169ZQolrveQUhhBDC+cyv65F1c9s+UW0UuUd2Ipgo3vk7VXLa6C6EsP4JyLm7U7hTZX1Ww9Ix9Z5fEEIIIZzO3CL+e4+W7tHHIOPo3oAQDjIZZlkLj5XeEJZORhDC8gWbnCrbshra4+k9ryCEEEI4n8ki/nuPlu7RxyDj6N6AEA4yGWZZC4+RUwXC6Rfqw5GgytashqVj6j2/IIQQQjiduUX89x4t3aOPEcZxFzlVDsf75t8FO5BTZTCnSqqTUwXC8d/VTTlVSmuKnCrrEzlVIIQQwvjMr+uRdXPbPqdKj/fqPeQe2WltImx9rIXHuFMFwnmfgHCnyrashqVj6j2/IIQQQjiduUX89x4tvYc+LmT3BjR3j8nAhJsWVFnDiRHCNTKZoMq2rIb2eHrPKwghhBDOZ7KI/96jpffQx4Xs3oDm7jEZmHDcqQLhUsxtgygEVdZtNSwdU+/5BSGEEMLpzC3iv/do6T30cSG7N6C5e0wGJtxwUCW9ISydjCCE5Qt26WfJS+urhXVmfY9WQ3s8vecVhBBCCOczWcR/79HSe+jjEiZR7YKvET1R0ZDOJarNmSeq9U4yBeEameurt0/nrlJyWhLVrk9DiWpFOO9BCCGEW6a9pkfWzS2JasfKPbLT2j0ibETx6neq2E/W8+juGiLNEK6RyeRU2ZbV0B5P73kFIYQQwvlMFvHfe7R0jz4GGUf3BoQ4UEEmwyxr4TFyqkA4/UJ9OBJU2ZrVsHRMvecXhBBCCKczt4j/3qOle/QxyDi6NyDEgQoyGWZZC4+V3hB++nj17DWcGCFcI5MJqmzLamiPp/e8ghBCCOF8Jov47z1aukcfg4yjewNCHKggk+Eiq4h+horoq7qIfn7TV65/+nh1MnYQwtML9eFIUGVrVsPSMfWeXxBCCCGcztwi/nuPlu7RxwjjSKLaBV8jeqIiqzFJKm0izbu7B/nZT66e63/483v3ZFMQrpFJX719/2oNkah2vRpKVOs9ryCEEEI4n/l1PbJubklUO1bukZ3WJsLWxjpQFyGnCoRzPwEp/Sx5bX0tbZ1Z36PVsHRMvecXhBBCCKczt4j/3qOle/QxyDi6NyDEgQoyGS6yDtRFXr8B5Nd/ILzsgp3WkKUtt7DOrO/RamiPp/e8ghBCCOF8Jov47z1aukcfg4yjewNCHKggk+Ei60Bd5PUbQe5UgXD8hfpwvD97dwpBlfVZDUvH1Ht+QQghhHA6c4v47z1aukcfI4wjOVUWfI3o36mzGptTRUROckD86bv7k7/x/k4khGtkEjlVtiVyqkAIIYTxmV/XI+vmlpwqY+Ue2WltImxtrAN1EXKqQDj3ExB+/WdbVsPSMfWeXxBCCCGcztwi/nuPlu7RxyDj6N6AEA4yGS6yDtRFhoMqazgxQrhGJhNU2ZbV0B5P73kFIYQQwvlMFvHfe7R0jz4GGUf3BoRwkMlwkXWgLsKdKhDOuVAfjgRVtmY1LB1T7/kFIYQQwunMLeK/92jpHn0MMo7uDQjhIJPhIutAXYQ7VSCcymSCKtuyGtrj6T2vIIQQQjifySL+e4+W7tHHCOO4i0S1PXQgUW01Ua1NspknqvVOMgXhGpkrT1RbSvxMotp1aShRrQjnPQghhHDLtNf0yLq5JVHtWLlHdlqbCFsb60Bd5PWn6typAuFln4CUfpa8tL5aWGfW92g1tMfTe15BCCGEcD6TRfz3Hi3do49BxtG9ASEOVJDJcJF1oC7y+o0gOVUgHH+hPhzvn4ORdk3ZcgvrzPoerYalY+o9vyCEEEI4nblF/PceLb2HPi5k9wY0d4/JsMcJpwN1ESm+ISydjCCE5Qs2OVW2ZTW0x9N7XkEIIYRwPpNF/PceLb2HPi5k9wY0d4/JsMcJpwN1EX79B8I5F+rDkaDK1qyGpWPqPb8ghBBCOJ25Rfz3Hi29hz4uYRLVLqQDiWonJaoVIWkjhOeSoOWJau2aIlHt+jSUqNZ7XkEIIYRwPvPremTd3LZPVBtF7pGdCN5jFE8H6iLlO1U+fbx6dj52EMLXn4Bwp8q2rIalY+o9vyCEEEI4nblF/PceLd2jj0HG0b0BIRxkMoywPlsH6iL6+U1fuf7p49UqTowQrpHJBFW2ZTW0x9N7XkEIIYRwPpNF/PceLd2jj0HG0b0BIRxkMgxaK+VSXYQ7VSCcc6E+HO9fBVEIqqzbalg6pt7zC0IIIYTTmVvEf+/R0j36GGEcd5FT5XC8b/5dsMNOcqrkeQIuzalyd/cgIkJOFQgv+K5uyqmS1hI5VdYtcqpACCGE8Zlf1yPr5rZ9TpUe79V7yD2y09pE2JazVsqlushwGdjXAAAgAElEQVTLJ+k5bXQXQlj/BOTc3SncqbI+q2HpmHrPLwghhBBOZ24R/71HS++hjwvZvQHN3WMy7GXCaaVcqouUv65QOhlBCMsXbHKqbMtqaI+n97yCEEII4Xwmi/jvPVp6D31cyO4NaO4ek2EvE04r5VJdpJxTxZ6IIITlC/XhSFBla1bD0jH1nl8QQgghnM7cIv57j5beQx8XsnsDmrvHZNjLhNNKuVQXGQ6qrOHECOEamUxQZVtWQ3s8vecVhBBCCOczWcR/79HSe+jjEiZR7YKvET1Rkci8RLWpnieq9U4yBeEamSslqi2tKRLVrk9DiWpFOO9BCCGEW6a9pkfWzS2JasfKPbLT2j0ibHuJ4mmlXKqLcKcKhFOZzJ0q27Ia2uPpPa8ghBBCOJ/JIv57j5bu0ccg4+jegBAHKshkGLRWyqW6CDlVIJxzoT4c718FUQiqrNtqWDqm3vMLQgghhNOZW8R/79HSPfoYZBzdGxDiQAWZDIPWSrlUF3n9BpA7VSC87IJd+lny0vpqYZ1Z36PV0B5P73kFIYQQwvlMFvHfe7R0jz4GGUf3BoQ4UEEmw6C1Ui7VRV6/EeROFQjHX6gPx/uzd6cQVFmf1bB0TL3nF4QQQginM7eI/96jpXv0McI4kqh2wdeInqhIZFqiWhE5SayZJ6oVIWkjhOeSoJGodlsaSlTrPa8ghBBCOJ/5dT2ybm5JVDtW7pGd1ibCtpy1Ui7VRcipAuHcT0BIVLstq2HpmHrPLwghhBBOZ24R/71HS/foY5BxdG9AiAMVZDIMWivlUl2EX/+BcCqTCapsy2poj6f3vIIQQgjhfCaL+O89WrpHH4OMo3sDQhyoIJNh0Fopl+oi3KkC4ZwL9eFIUGVrVsPSMfWeXxBCCCGcztwi/nuPlu7RxwjjSE6VBV8j+nfqRKblVLH5IH72k6vn+h/+/N79O5EQrpFJ5FTZlsipAiGEEMZnfl2PrJtbcqqMlXtkp7WJsC1nPVN+quuJnz5JL9c/fbw6GTsI4etPQEo/S57XW6zz0hqfUt+j1bB0TL3nF4QQQginM7eI/96jpXv0Mcg4ujcghINMhkHrmbIW/r70hvDTx6tnr+HECOEamVz6WfLS+mphnVnfo9XQHk/veQUhhBDC+UwW8d97tHSPPgYZR/cGhHCQyTBoLZRVhoMqOe2JCEJYvlAfjvdn704hqLI+q2HpmHrPLwghhBBOZ24R/71HS/foY5BxdG9ACAeZDIPWQtkyd+kNYelkBCF8YX43F4lqt2U1TMeV8x2EEEIYh8ki/nuPlu7RxwjjuItEtT102HGi2lJixqRSoto/fXf/XPdOMgXhGvn1l/fy01/8XUREHh/fyPX1y2k6r9vnxkjlzehksiSqvVxDiWpFOO9BCCGEW6a9pkfWzS2JasfKPbLT2kTYlrMWypa5h35SeQ2RZgjXxpZ3qpTW6di/vbS+R6thOq6c7yCEEMI4TBbx33u0dI8+BhlH9waEOFBBJsOgtVC2zD0UVMnHDkJ4uj4Ox3uCKhuzGpaOqff8ghBCCOF05hbx33u09B76uJDdG9DcPSbDXiacFsqWublTBcJ5F2yCKtuyGtrj6T2vIIQQQjifySL+e4+W3kMfF7J7A5q7x2TYy4TTQtkyN3eqQDj9Qn043r8KohBUWbfVsHRMvecXhBBCCKczt4j/3qOl99DHJUyi2oV0IFHtYKLau7sHEZGTRLUiJG2E8FwStK/evpcPH949ryW7pvJE0Jeu4Uv/lkS1wxpKVOs9ryCEEEI4n/l1PbJubtsnqo0i98hOBO8liqeFsmXu9El6ThvdhRDWPwE5d3cKd6qsz2pYOqbe8wtCCCGE05lbxH/v0dI9+hhkHN0bEMJBJsOgtVC2zF16Q1g6GUEIyxdscqpsy2poj6f3vIIQQgjhfCaL+O89WrpHH4OMo3sDQjjIZBi0FsqWucmpAuH0C/XhSFBla1bD0jH1nl8QQgghnM7cIv57j5bu0ccI47iLnCqH433z74IdyKkymFMl1cmpAuH47+qmnCqlNUVOlfWJnCoQQghhfObX9ci6uW2fU6XHe/Ueco/stDYRtuWshbJlbu5UgXDeJyDcqbItq2HpmHrPLwghhBBOZ24R/71HS++hjwvZvQHN3WMy7GXCaaFsmbv0hvDTx6tnr+HECOEamUxQZVtWQ3s8vecVhBBCCOczWcR/79HSe+jjQnZvQHP3mAx7mXBaKFvmzt/06XNdVUT108erk7GDEJ5eqA/H+1dBFIIq67Yalo6p9/yCEEII4XTmFvHfe7T0Hvq4kN0b0Nw9JsNeJpwWypa5S28IuVMFwvEX7NLPkpfW15Q1fOnfXlrfo9XQHk/veQUhhBDC+UwW8d97tPQe+riESVS74GtET1QkMj1R7d3dg3xxLfLjo5wkqvVOMgXhGpnrq7dP565ScloS1a5PQ4lqRTjvQQghhFumvaZH1s0tiWrHyj2y09o9Imx7ieJpoWyZO/+6gsrrRLVriDRDuEYmk1NlW1ZDezy95xWEEEII5zNZxH/v0dI9+hhkHN0bEOJABZkMg9ZC2TJ3KaeKPRFBCMsX6sORoMrWrIalY+o9vyCEEEI4nblF/PceLd2jj0HG0b0BIQ5UkMkwaC2ULXMPBVXWcGKEcI1MJqiyLauhPZ7e8wpCCCGE85ks4r/3aOkefQwyju4NCHGggkyGQWuhbJmbO1UgnH6hPhwJqmzNalg6pt7zC0IIIYTTmVvEf+/R0j36GGEcSVS74GtET1QkMj1Rbfp7m6hWhKSNEJ5LgvbV2/cnyWhJVLtuDSWq9Z5XEEIIIZzP/LoeWTe3JKodK/fITmsTYVvOWihb5uZOFQjnfQJS+lny0vqasoYv/dtL63u0GpaOqff8ghBCCOF05hbx33u0dI8+BhlH9waEOFBBJsOgtVC2zF16Q1g6GUEIyxfstIYsbXnKGr70by+t79FqaI+n97yCEEII4Xwmi/jvPVq6Rx+DjKN7A0IcqCCTYdBaKFvmzt8IqnCnCoSXXKgPx/uzd6cQVFmf1bB0TL3nF4QQQginM7eI/96jpXv0McI4klNlwdeI/p06kWk5VUREPnx4R04VCCd8V5ecKtsSOVUghBDC+Myv65F1c0tOlbFyj+y0NhG25ayFsmVucqpAOO8TEH79Z1tWw9Ix9Z5fEEIIIZzO3CL+e4+W7tHHIOPo3oAQDjIZBq2FsmXuoaDKGk6MEK6RyQRVtmU1tMfTe15BCCGEcD6TRfz3Hi3do49BxtG9ASEcZDIMWgtly9zcqQLh9Av14UhQZWtWw9Ix9Z5fEEIIIZzO3CL+e4+W7tHHIOPo3oAQDjIZBq2FsmVu7lSBcN4Fm6DKtqyG9nh6zysIIYQQzmeyiP/eo6V79DHCOO4iUW0PHUhUW01UmxJppkS1P/vJ1fPzv/7tL1eRbArCNTFXnqg2T/xs19eUNXzp35KodlhDiWpFSFYLIYQQbpn2mh5ZN7ckqh0r98hOaxNhW85aKFvmTj+lLKLZT8Oqiqh++ni1ikgzhGtkcv6z5DltecoavvRvL63v0Wpoj6f3vIIQQgjhfCaL+O89WrpHH4OMo3sDQhyoIJNh0FooW+ZOQZWcnz5ePTsfOwjh6YX6cLzPgpEva6pUnrKGL/3bS+t7tBqWjqn3/IIQQgjhdOYW8d97tPQe+riQ3RvQ3D0mw14mnBbKlrnzN4Qq5FSBcCyTyamyLauhPZ7e8wpCCCGE85ks4r/3aOk99HEhuzeguXtMhr1MOC2ULXO/fP2HX/+BcCxzE1TZltWwdEy95xeEEEIIpzO3iP/eo6X30MclTKLahXQgUW01Ue0X1/L8/I+PIn/67v7kb7yTTUG4RibliWrTmiJR7Xo1lKjWe15BCCGEcD7z63pk3dy2T1QbRe6RnQjeSxRPC2XL3NypAuG8T0C4U2VbVsPSMfWeXxBCCCGcztwi/nuPlu7RxyDj6N6AEA4yGQathbJl7qGgyhpOjBCukckEVbZlNbTH03teQQghhHA+k0X89x4t3aOPQcbRvQEhHGQyDFoLZcvc3KkC4fQL9eF4/yqIQlBl3VbD0jH1nl8QQgghnM7cIv57j5bu0ccI47iLnCqH433z74IdyKkymFPl7u5BRMipAuEl39VNOVVS/hRyqqxb5FSBEEII4zO/rkfWzW37nCo93qv3kHtkp7WJsC1nLZQtc6c7VXLa6C6EsP4JyLm7U7hTZX1Ww9Ix9Z5fEEIIIZzO3CL+e4+W3kMfF7J7A5q7x2TYy4TTQtkyd/6GUIWcKhCOZTI5VbZlNbTH03teQQghhHA+k0X89x4tvYc+LmT3BjR3j8mwlwmnhbJlbnKqQDj9Qn04ElTZmtWwdEy95xeEEEIIpzO3iP/eo6X30MeF7N6A5u4xGfYy4bRQtszNr/9AOO+CTVBlW1ZDezy95xWEEEII5zNZxH/v0dJ76OMSJlHtgq8RPVGRyLxEtd8+PMiPj6eJar2TTEG4RuZKiWrzNUWi2vVqKFGtCOc9CCGEcMu01/TIurklUe1YuUd2WrtHhG0vUTwtlC1zc6cKhPM+AeFOlW1ZDe3x9J5XEEIIIZzPZBH/vUdL9+hjkHF0b0CIAxVkMgxaC2XL3ORUgXD6hfpwvH8VRCGosm6rYemYes8vCCGEEE5nbhH/vUdL9+hjkHF0b0CIAxVkMgxaC2XL3HlQJb0h/PTx6tlrODFCuEYmp8CJpS1PWcOX/u2l9T1aDe3x9J5XEEIIIZzPZBH/vUdL9+hjkHF0b0CIAxVkMgxaC2XLl7I+B1Vyfn5aP328Ohk7COHphfpwvD97dwpBlfVZDUvH1Ht+QQghhHA6c4v47z1aukcfI4wjiWoXfI3oiYpExieqTeW7uwcREfnw4SVR7c9+cvX87/3hz+/dk01BuEYmkah2WxpKVOs9ryCEEEI4n/l1PbJubklUO1bukZ3WJsK2nLVQtszL5FSBcN4nICSq3ZbVsHRMvecXhBBCCKczt4j/3qOle/QxyDi6NyDEgQoyGQathbJlXubXfyCcd8EmqLItq6E9nt7zCkIIIYTzmSziv/do6R59DDKO7g0IcaCCTIZBa6FsmZe5UwXC6Rfqw5GgytashqVj6j2/IIQQQjiduUX89x4t3aOPEcaRnCoLvkb079SJTMup8sW1PD//46PIn767P/k3vb8TCeEamUROlW2JnCoQQghhfObX9ci6uSWnyli5R3ZamwjbctZC2TIvc6cKhPM+AbF3pnCnyrqthqVj6j2/IIQQQjiduUX89x4t3aOPQcbRvQEhHGQyDFoLZcu8nAdV0hvC0skIQli+YKfAiaUtT1nDl/7tpfU9Wg3t8fSeVxBCCCGcz2QR/71HS/foY5BxdG9ACAeZDIPWQtkyL6egSk57IoIQli/Uh+P92btTCKqsz2pYOqbe8wtCCCGE05lbxH/v0dI9+hhkHN0bEMJBJsOgtVC2zMv5G0IV7lSBcCyTSVS7LauhPZ7e8wpCCCGE85ks4r/3aOkefYwwjrtIVNtDBxLVTkpU651kCsI1MheJareloUS1Ipz3IIQQwi3TXtMj6+aWRLVj5R7ZaW0ibMtZC2XLvDyUqHYNkWYI18hk7lTZltXQHk/veQUhhBDC+UwW8d97tHSPPgYZR/cGhDhQQSbDoLVQtszL/PoPhNMv1IcjQZWtWQ1Lx9R7fkEIIYRwOnOL+O89WnoPfVzI7g1o7h6TYS8TTgtly7zMnSoQzrtgE1TZltXQHk/veQUhhBDC+UwW8d97tPQe+riQ3RvQ3D0mw14mnBbKlnmZO1UgnH6hPhzvXwVRCKqs22pYOqbe8wtCCCGE05lbxH/v0dJ76OMSJlHtQjqQqHYwUe3d3YOIiPzsJ1fP/94f/vzePdkUhGtkUkpUm5LSkqh23aolqv36y5cE3Zz3IIQQwm0z6YfvY7//u7ltn6g2itwjOxG8lyieFsqWeTndqWL56eOVfvp4dTJ2EMInpvXx6ePV2btTlrpT5ekxfWX7+KX1PTqNQWksOO9BCCGE22duEf/3Zy3do49BxtG9ASEcZDIMWgtly7ycvyFUeR1UWcOJEcK18emN99Mb8af1o8W6fW6Mn9bmuUBAeb1Pqe/RapiOax4o855fEEIIIZzHZBH/vUdL9+hjkHF0b0AIB5kMg9ZC2TIvl3KqqMjJiQhCeEp7p0q+BtvdqTI/iFL6t/fm0ljmm681zC8IIYQQTmduEf+9R0v36GOQcXRvQIgDFWQyDFoLZcu8zK//QDjvgk1QZVsujSXnOwghhDAWk0X89x4t3aOPEcZxF4lqD8f75gl2DiSqHUxU++3Dg/z4KPKn714SNnonmYJwjcyVEtUmtUhUW1rDpb8lUe2waolqc3nPLwghhBBOp72mR9bNLYlqx8o9stPaRNiWsxbKlnmZO1UgnPcJCHeqbMulseR8ByGEEMZisoj/3qOl99DHhezegObuMRn2MuG0ULbMy0NBlXzsIISn6+NwvH8VRCGosm6XxtIeU+/5BSGEEMLpzC3iv/do6T30cSG7N6C5e0yGvUw4LZQt83IeVElvCEsnIwjhC0uJai1tecoarq3l2t9eWt+jS2PJ+Q5CCCGMxWQR/71HS++hj0uYnCoLvkb079SJTM+p8uOjPJOcKhCe59df3stPf/F3ERF5fHwjIiLX1/pcL5XPSeXNq7VZWtfkVJkvcqpACCGEsWmv6ZF1c9s+p0qP9+o95B7Zae0eEba9RPG0ULbMy/nXFVS4UwXCMVz6J5VLa7P0vH1ubn2PLo0l5zsIIYQwFpNF/PceLd2jj0HG0b0BIQ5UkMkwaC2ULfMyOVUgnH6hPhyXSVRbWpul5+1zc+t7dGks7TH1nl8QQgghnM7cIv57j5bu0ccg4+jegBAHKshkGLQWypZ5mV//gXDeBZugyrZcGkvOdxBCCGEsJov47z1aukcfg4yjewNCHKggk2HQWihb5mXuVIFw+oX6cCSosjWXxtIeU+/5BSGEEMLpzC3iv/do6R59jDCOJKpd8DWiJyoSmZ6oNj1vE9WKkLQRwnNJ0L56+14+fHhJ/np39/Bcz8uXrFsRKSaYJVHtfA0lqvWeVxBCCCGcz/y6Hlk3tySqHSv3yE5rE2FbzlooW+bl0p0qKnIS3YUQnrKWqDZP/Jzql67bc/Wxfze2vkeXxrL0qRaEEEIIt8ncIv57j5bu0ccg4+jegBAHKshkGLQWypZ5OQ+qpDeEKvLqZAQhfOGnj1f6eRl9Dpy8pi2f89Ma1MHgSe3xqfU9ujSWnO8ghBDCWEwW8d97tHSPPgYZR/cGhDhQQSbDoLVQtszLKYhimT6Fz8cOQvhEe6dK7e6US+9UKa3VMY9Pre/RpbG0x9R7fkEIIYRwOnOL+O89WrpHH4OMo3sDQhyoIJNh0FooW+bllzeEehJUEVH99PFqFSdGCNfI5CUT1ZZp72R5fYfL1PoeXRtL+XzO47wHIYQQbp/JIv7vz1q6Rx8jjCOJahd8jeiJikSmJar98OHdc3LMHx9FvrgW+Z+PVyIi8uvf/nIVyaYgXBNzLZmodixL631KfY+qJar9+suXBN2c9yCEEMLtMtcP38d+/3dzS6LasXKP7ERwhAjbGGuhbJmX0yfpKqdf/7ERXghh+ROQ9neq8PWfJV0aS853EEIIYSwmi/jvPVq6Rx+DjKN7A0I4yGQYtBbKlnl5KKiSjx2E8Im1X//J15Qtj1m3Y2n/v6n1Pbo0lvnmaw3zC0IIIYTTmVvEf+/R0j36GGQc3RsQwkEmw6C1ULbMy9ypAuHlLP36T6k+7dd/hmn/v6n1Pfp0LF+uD5zvIIQQwjhMFvF/f9bSPfoYYRx3kVOlhw7kVLkop8rvj0/5Bby/EwnhGpnn3/jbP/9xkkNFRMipsmLVcqrk8p5fEEIIIZxOe02PrJtbcqqMlXtkp7WJsC1nLZQt83J+p0r6JSCV1xFeCGH5E5C0hixtecy6HcvSep9S36NLY8n5DkIIIYzFZBH/vUdL9+hjkHF0b0CIAxVkMgxaC2XLvJy/EVQhpwqEl1yoD8f77GfJT9eULY9Zt2NZWu9T6nt0aSztMfWeXxBCCCGcztwi/nuPlt5DHxeyewOau8dk2MuE00LZMi/nd6eocKcKhGOZTKLabbk0lpzvIIQQwlhMFvHfe7T0Hvq4kN0b0Nw9JsNeJpwWypZ5mV//gXD6hfpwJKiyNZfG0h5T7/kFIYQQwunMLeK/92jpPfRxCZOodiEdSFQ7KVGtCEkbIbT84+/+8rw+8kS1IqfJaUlUuz4NJapdw/yCEEII4Tzm1/XIurltn6g2itwjOxG8lyieFsqWeZk7VSC8nPyk8nb9NAbcqQIhhBBGZW4R//dnLd2jj0HG0b0BIRxkMgxaC2XLvDwUVFnDiRHCtfHTx6tn8/WfbTofC853EEIIYSwmi/jvOVq6Rx+DjKN7A0I4yGQYtBbKlnmZO1UgnH6hPhzvXwVRCKpsw/lY2GPqPb8ghBBCOJ25Rfz3HC3do49BxtG9ASEOVJDJMGgtlC3zch5UyX8JyJ6MIITlC3b+s+Q5bXnMuh3L0nqfUt+z87HgfAchhBDGYrKI/56jpXv0McI47iJR7eF43zzBzoFEtdVEtV9cvySotYlqvZNMQbhG5vrq7dO5q5SclkS161UtUa0I5z0IIYRwy7TX9Mi6uSVR7Vi5R3ZamwjbctZCucRUzu9OUXkpp3wRa4g0Q7hGJpNTZZvOx8J+ogUhhBDCbTNZxH/P0dJ76ONCdm9Ac/eYDHuZcFoon2MeUMnrIvr5F07WcWKEcE0kUe32nY9Fvvlaw/yCEEII4XTmFvHfc7T0Hvq4kN0b0Nw9JsNeJpwWyudYC6pwpwqEdfKTytt3PqZ28wUhhBDCbTNZxP/9WUvvoY9LmJwqC75G9O/UiYzLqZIz5VBJIqcKhMP8+sv75zXzt3/+4yRvCjlVtqF8TNP5Lsl7fkEIIYRwOu01PbJubtvnVOnxXr2H3CM7rd0jwraXKJ4WyudYu1PFRnghhOVPQPj6zzadjynnOwghhDAWk0X89xwt3aOPQcbRvQEhDlSQyTBoLZTPcSioko8dhPD0Qn043r8KohBU2YbzMbXH1Ht+QQghhHA6c4v47zlaukcfg4yjewNCHKggk2HQWiifo/3lH+5UgfCyC3YKnFja8ph1O5al9T6lvmfnY8r5DkIIIYzFZBH/PUdL9+hjkHF0b0CIAxVkMgxaC+VzTEEUy/xEBCE8pf31n1oghaDKep2Pab75WsP8ghBCCOF05hbx33O0dI8+RhhHEtUu+BrRExWJTEtUK/KSrNYmqhUhaSOEln/83V/kp7/4u4iIPD6+kS+u5Xndkah2G6olql3D/IIQQgjhPObX9ci6uSVR7Vi5R3ZamwjbctZC+RzJqQLh5bR3quTrjjtVtuF8TEufakEIIYRwm8wt4r/naOkefQwyju4NCHGggkyGQWuhfI78+g+E8y7YBFW26XxMOd9BCCGEsZgs4r/naOkefQwyju4NCHGggkyGQWuhfI7cqQLh9Av14UhQZavOx9QeU+/5BSGEEMLpzC3iv+do6R59DDKO7g0IcaCCTIZBa6F8jtypAuG8CzZBlW06H1POdxBCCGEsJov47zlaukcfI4wjiWoXfI3oiYpExieqTUqJaW09JW70TjIF4RqZ66u3758T1d7dPa0tEtWuX7VEtSKc9yCEEMIt017TI+vmlkS1Y+Ue2YngCBG2MdZC2TKVVU7vVEk/DavyOsILIXxhKVFtuitl7p0qKtyp0sP5mHK+gxBCCGMxWcR/z9HSPfoYZBzdGxDCQSbDoLVQzmnL+RvCnPmJCEJ4yk8fr9ISeg5G5vVS+Zyf1qVma1Sf12mJpfU+pb5n52Oab77WML8ghBBCOJ25Rfz3HC3do49BxtG9ASEcZDIMWgtllfKbM5XTu1NSXUVenYwghC9s+ZPKtfVq1/cS9T07H1POdxBCCGEsJov47zlaukcfI4zjLnKq9NBhxzlV8rLNq1LLqfI/H69EROTXv/3lKr4bCeGamCvPqSJymkdlSk6VJHKqtBU5VSCEEMKYtNf0yLq5JafKWLlHdlqbCNty1kJZn8uvv2ZQ+/UfEdVPH69WEWmGcI1M5k6VbTofU/uJFoQQQgi3zWQR/z1HS/foY5BxdG9AiAMVZDIMWgtllfKbM5V6UCV9tSEfOwjh6YX6cCSoslXnY2qPqff8ghBCCOF05hbx33O09B76uJDdG9DcPSbDXiacFsoqlwdV7MkIQli+YBNU2abzMeV8ByGEEMZisoj/nqOl99DHhezegObuMRn2MuG0UFaZHlTJxw5C+MRaotqXXwJ6qV+ybvO1aB+363uJ+p6dj2m++VrD/IIQQgjhdOYW8d9ztPQe+riESVS7kA47TlSbkl8OJar98fGJX1zLSeJG72RTEK6Nf/zdX+Snv/i7iIg8Pr6RL66f1s/1tcrj4xu5vtbn51I5SeXNq2SxJKrtr1qi2jXMLwghhBDOY35dj6yb2/aJaqPIPbITwXuJ4mmhrDJ8p4plHt2FEJ7S3qlSuzuldKeKSv0xFe5U6eV8TEufakEIIYRwm8wt4r/naOkefQwyju4NCOEgk2HQWiirnA+q5F8BIqcKhJddsC/NqaJSf0yFoEov52PK+Q5CCCGMxWQR/z1HS/foY5BxdG9ACAeZDIPWQlnlfFBFC/X8RAQhLF+oD0eCKlt1Pqb2mHrPLwghhBBOZ24R/z1HS/foY5BxdG9AiAMVZDIMWgtllelBlTWcGCFcI5MJqmzT+ZhyvoMQQghjMVnEf8/R0j36GGEcd5Go9nC8b55g50Ci2sFEtXk9JW70TjIF4Rr59ZcviU3/9s9/yBfX8rzu7u4e5MOH1+XSGrWPkai2n2qJakU470EIIYRbpr2mR9bNLYlqx8o9stPaRDXxVsAAACAASURBVNiWsxbKKtypAuGS/PTx6nnZvNyp8lIvlUtrtLZWtfB46f+dW9+z8zHlfAchhBDGYrKI/56jpffQx4Xs3oDm7jEZ9jLhtFBWKb85UyGnCoRTaH/9J62r2i8BldZlad3ma9E+Xvp/59b37HxM883XGuYXhBBCCKczt4j/nqOl99DHhezegObuMRn2MuG0UFYZF1TJfwnInowghOULdv5z5CIEVbbifEw530EIIYSxmCziv+do6T30cQmTU2XB14j+nTqR6TlVLMmpAuG47+p+9fbp3FXKo5LKpXVZWrfkVOkncqpACCGEMWmv6ZF1c9s+p0qP9+o95B7Zae0eEba9RPG0UFY5f6eKvVtF5XWEF0JY/gRkzK//lNZlad2qcKdKL+djyvkOQgghjMVkEf89R0v36GOQcXRvQIgDFWQyDFoLZZXymzWVek6VlC8iHzsI4emF+nAkqLJV52N6OJ7myfGeXxBCCCGcztwi/nuOlu7RxyDj6N6AEAcqyGQYtBbKKqdv1ER0MKgiovrp49UqTowQro21RLUiBFW2YX0+zyXK53Me5z0IIYRw+0wW8d5ztHWPPgYZR/cGhDhQQSbDoLVQVnn9Ri2ZO1UgvJyX/qRy/nxePn2MoEov2zFOx5TzHoQQQrh95hbx33e0dI8+RhhHEtUu+BrRExWJnE9UKyKv6ikxra3niRu9k01BuDb+8Xd/eV4ff/vnP+SLa3led5cmqrWJpO1aJVHt8rJjzvkOQgghjMX8uh5ZN7ckqh0r98hOaxNhW85aKKu8/mQ2uXanSh7dhRDWPwHJv/6TEj9LVq+ty7x+bq2WeO7fuqS+R5fGuPSpFoQQQgi3ydwi/nuPlu7RxyDj6N6AEAcqyGQYtBbKKuOCKvkvAdmTEYSwfMFOayYFUAiqrNulMeV8ByGEEMZisoj/3qOle/QxyDi6NyDEgQoyGQathbLKcFDFMj8RQQjLF+rD8b56d0peLq3LvH5urZZ47t+6pL5Hl8bUHlPv+QUhhBDC6cwt4r/3aOkefQwyju4NCHGggkyGQWuhrHI+qGLvVlGRVycjCGH5gj33139qa9Ou4dr/O6e+R5fGlPMdhBBCGIvJIv57j5bu0ccI40ii2gVfI3qiIpHlE9V6J5mCcI38+suXxKYkqt2WSmOaJ6oV4bwHIYQQbpn2mh5ZN7ckqh0r98hOBEeIsI2xFsoq5+9UKdVthBdC+MKlflL53Nq0a9iu7yXqe3RpTDnfQQghhLGYLOK/92jpHn0MMo7uDQjhIJNh0Fooq9TfuPHrPxBezk8fr5495+s/59amXcP2/12ivkeXxjTffK1hfkEIIYRwOnOL+O89WrpHH4OMo3sDQjjIZBi0Fsoq04MqazgxQrhGJk8NqqgQVPFwaUw530EIIYSxmCziv/do6R59jDCOu8ip0kMHcqqICDlVIFz6u7pfvX3/nFPl7u5pbY3JqWLXJzlV+oicKhBCCGFs2mt6ZN3cklNlrNwjO61NhG05a6GsMu5OlfyXgGyEF0JY/gQk/zlykcvuVMnXY22tllha71Pqe3RpTDnfQQghhLGYLOK/92jpHn0MMo7uDQhxoIJMhkFroawyHFSxzE9EEMJT2pwqpUBKXq6ty3w91tZqiaX1PqW+R5fGNN98rWF+QQghhHA6c4v47z1aeg99XMjuDWjuHpNhLxNOC2WV80EVe7eKirw6GUEIX1j79Z+0htIaJKiyPpfGlPMdhBBCGIvJIv57j5beQx8XsnsDmrvHZNjLhNNCWaX+xo1f/4HwctZ+/SetobQGCaqsz6Uxzjdfa5hfEEIIIZzO3CL+e4+W3kMflzCJahfSgUS1IjI+Ue3/fLwSEZE//Pm9e7IpCNfIpDxR7bcPD/LjI4lq1y475r8/3svXX74kq+W8ByGEEG6bST98H/v9381t+0S1UeQe2Yng+FG8pw9ftVB+fqBQr92pIqKfv+KwjogzhGtibu5U2ZZPx/j0nJnuPvKeXxBCCCGcztwi/nuPlu7RxyDj6N6AEA4yGapWQ/uYVuq1oEp6c7GGEyOEa2QyQZVtuTTGh+PpV7rWML8ghBBCOJ3JIv57j5bu0ccg4+jegBAOMhmqVkP7mFbq5FSBcPqF+nA8DarUfgmoti7z9Vhbq7X1vUR9b1Ypj7E9pt7zC0IIIYTTmVvEf//R0j36GGQc3RsQ4kAFmQxVq6F9TCt1+8s//PoPhMMsJarNmdYgQZV1uTbmnO8ghBDCWEwW8d9/tHSPPkYYx10kqj0c75sn2DkET1RbSmR5SaJay98fn5I2eieZgnCN/PrLe/npL/4uIiKPj29ERJ4T0pKodr2qjXk63yV5zy8IIYQQTqe9pkfWzS2JasfKPbLT2kTY5lsN7WNaqed3p6S6yusIL4Twhfyk8jZdG3POdxBCCGEsJov47z9aeg99XMjuDWjuHpMh+oRTQ/uYVurkVIFw+oX6cCRR7ZZcG3N7TL3nF4QQQginM7eI//6jpffQx4Xs3oDm7jEZok84NbSPaaU+FFRZw4kRwjUymaDKdlwbc853EEIIYSwmi/jvP1p6D31cwuRUWfA1In+nbm5OFVsnpwqE476r+9Xb9/LF9cvaIqfKekVOFQghhDA+7TU9sm5u2+dU6fFevYfcIzut3SPCFj2Kp4b2Ma3UuVMFwnmfgHCnynZcG3POdxBCCGEsJov47z9aukcfg4yjewNCHKggk6FqNbSPaaVOThUIL2ctUW1K/CxZ/dy6zNdjba3W1vcS9b25Nub55msN8wtCCCGE05lbxH//0dI9+hhkHN0bEOJABZkMVauhfUwrdfvLP9ypAuEwP328el5Gac1YihBUWZtrY875DkIIIYzFZBH//UdL9+hjkHF0b0CIAxVkMlSthvYxrdRrbwjzExGE8JT2TpU8eEJQZb2ujXm++VrD/IIQQgjhdOYW8d9/tHSPPkYYRxLVLvgakRMVzUlUK/KSrNYmqhUhaSOE55KglRLVpjqJatelMYlqvecVhBBCCOczv65H1s0tiWrHyj2y09pE2OZbDe1jWqmTUwXCeZ+AlBLVpjp3qqzLtTEvfaoFIYQQwm0yt4j//qOle/QxyDi6NyDEgQoyGapWQ/uYVur8+g+E8y7Yc4Iq59ZmaV3n/84S9b3ZjnMqc76DEEIIYzFZxH//0dI9+hhkHN0bEOJABZkMVauhfUwrde5UgfBy1n79J19DIueDKkNrs7Su8/93ifrebMc5le0x9Z5fEEIIIZzO3CL++4+W7tHHIOPo3oAQByrIZKhaDe1jWqlzpwqEl7P06z8iaoIq+jmoos/1VB6zNkvrOtGu8an1vdmOcyofjqdBFe/5BSGEEMJ5TBbx33+0dI8+RhhHEtUu+BqRExXNSVSbktTm9ZS40TvJFIRr5NdfviQ2/ds//3GSmFaknqi2lqS2tDZJVLu8ziWqzY/pr3/7y1XMMwghhBBezlw/fB/3/Z8IiWovkXtkJ4IjRNjOWQ3tY1qp53eqpJ+GVXkd4YUQlj8Bqf0sucjrr/+UWFub5/4/u8an1vdmO86pzPkOQgghjMVkEf/9R0v36GOQcXRvQAgHmQxVq6F9TCv12hvC/EQEISxfqA/H++dgZFpbBFXWazvOqWyPqff8ghBCCOF05hbx33+0dI8+BhlH9waEcJDJULUa2se0Us/vTkl1FXl1MoIQli/YlySqLbG2Ns/9f3aNT63vzXacU5nzHYQQQhiLySL++4+W7tHHCOO4i5wqPXQgp4qIkFMFwqW/q/vV2/fPOVS+fXh4XkPkVFmfzuVUyeU9vyCEEEI4nfaaHlk3t+RUGSv3yE5rE2GbbzW0j2mlzq//QHg5p/6kcom1tXnu/7NrfGp9b7bjnMqc7yCEEMJYTBbx33+0dI8+BhlH9waEOFBBJkPVamgf00p9KKiSjx2E8ImX/KSyXXtj12bt70vrfmp9b7bjnMr55msN8wtCCCGE05lbxH//0dJ76ONCdm9Ac/eYDNEnnBrax7RS504VCC/nJXeq2LU3dm3W/r607qfW92Y7zqnM+Q5CCCGMxWQR//1HS++hjwvZvQHN3WMyRJ9wamgf00qdO1UgnH6hPhzvXwVRCKqs13acU9keU+/5BSGEEMLpzC3iv/9o6T30cQmTqHYhHUhUKyLnE9X++PjEPFGtCEkbITyXBC0lqk1riUS169WYRLXe8wpCCCGE85lf1yPr5rZ9otooco/sRHD0KJ4a2se0Uk+fpFvm0V0IYf0TkHR3SlpbJKpdr+04p3LpUy0IIYQQbpO5Rfz3Hy3do49BxtG9ASEcZDJUrYb2Ma3U868rpLqKvDoZQQjLF+xLf/2nthZr9dr6XqK+N9txTmXOdxBCCGEsJov47z9aukcfg4yjewNCOMhkqFoN7WNaqZNTBcLLOecnle0ara3N0rrO/98l6ntz6TionG6+1jC/IIQQQjiduUX89x8t3aOPQcbRvQEhDlSQyVC1GtrHtFLn138gvJyX/KRyejyxthZr9dr6XqK+N9txTmXOdxBCCGEsJov47z9aukcfI4zjLhLVHo73zRPsHEhUKyLnE9Xm9ZS40TvJFIRr5NdfviQ2/ds///GcmPbbh4fBRLW1tUii2vY6l6g2P6a//u0vVzHPIIQQQng5c/3wfdz3fyIkqr1E7pGd1ibCNt9qaB/TSp07VSCc9wkIOVW2YzvOqXw4nn6law3zC0IIIYTTmSziv/9o6T30cSG7N6C5e0yG6BNODe1jWqmTUwXC6Rfqw/H+VRCFoMp6bcc5lQ/H06CK9/yCEEII4XTmFvHff7T0Hvq4kN0b0Nw9JkP0CaeG9jGt1O0v/3CnCoSXXbBrP0suQlBlbbbjnMqc7yCEEMJYTBbx33+09B76uITJqbLga0T+Tt3cnCqW5FSBsE6bU0VEnnOn2JwqKWcROVX8dS6nSi7v+QUhhBDC6bTX9Mi6uW2fU6XHe/Ueco/stHaPCFv0KJ4a2se0Us/vTkl1ldcRXgjhCy/59Z/a2htbr63vJep7sx3nVOZ8ByGEEMZisoj//qOle/QxyDi6NyDEgQoyGapWQ/uYVurkVIHwcub5N2qJam15aC3W6rX1vUR9b7bjnMr55msN8wtCCCGE05lbxH//0dI9+hhkHN0bEOJABZkMVauhfUwrdX79B8J5F2yCKtuxHedU5nwHIYQQxmKyiP/+o6V79DHIOLo3IMSBCjIZqlZD+5hW6typAuH0C/XhSFBlS7bjnMr2mHrPLwghhBBOZ24R//1HS/foY4RxJFHtgq8ROVHR3ES1tp4nbvRONgXhGpn01dv3z4lp80S1dn2RqNZfYxLVes8rCCGEEM5nfl2PrJtbEtWOlXtkp7WJsM23GtrHtFLnThUI530CYn9CmTtV1ms7zqlc+lQLQgghhNtkbhH//UdL9+hjkHF0b0CIAxVkMlSthvYxrdTtG0ByqkA4zFKiWktbHlqLtXptfS9R35vtOKcy5zsIIYQwFpNF/PcfLd2jj0HG0b0BIQ5UkMlQtRrax7RSr70hzE9EEMJT2p9UfnwUFTn9SWVbHlqLtXptfS9R35vtOKdyvvlaw/yCEEII4XTmFvHff7R0jz4GGUf3BoQ4UEEmQ9VqaB/TSr32dQV7MoIQvpCfVN6m7TinMuc7CCGEMBaTRfz3Hy3do48RxpFEtQu+RuRERa0S1XonmYJwjcxFotrtaEyiWhHOexBCCOGWaa/pkXVzS6LasXKP7ERwhAjbOauhfUwr9aFEtWuINEO4RiZzp8p2bMc5lTnfQQghhLGYLOK//2jpHn0MMo7uDQjhIJOhajW0j2mlzq//QDj9Qn04ElTZku04p7I9pt7zC0IIIYTTmVvEf//R0j36GGQc3RsQwkEmQ9VqaB/TSp07VSCcd8GurSFbHlqLtXptfS9R35vtOKfy4Xh/kidnDfMLQgghhNOZLOK//2jpHn2MMI67yKnSQwdyqogIOVUgXIJff/mSg+Nv//yHfPjwkk9FhJwqa9W5nCr5Mf31b3+5inkGIYQQwsuZ64fv477/EyGnyiVyj+y0NhG2+VZD+5hW6vZTde5UgXCY6SeV8zVkactDa7FWr63vJep7sx3nVD4cuVMFQgghjMRkEf/9R0v36GOQcXRvQIgDFWQyVK2G9jGt1GtvCPMTEYTwlOnNd1oztUAKQZV12Y5zKuebrzXMLwghhBBOZ24R//1HS++hjwvZvQHN3WMyRJ9wamgf00q99obQnowghK8v2PmasWvIlofWYq1eW99L1PdmO86pzPkOQgghjMVkEf/9R0vvoY8L2b0Bzd1jMkSfcGpoH9NKnV//gXD6hfrcGrLlobVYq9fW9xL1vdmOcyrnx3QN8wtCCCGE05lbxH//0dJ76OMSJlHtQjqQqFZELk9UK0KyWghrSdD+8zfvq2vIlklU669ziWqTvOcVhBBCCOczv65H1s1t+0S1UeQe2Yng6FE8NbSPaaXOnSoQXk6bU6W2prhTZV2245zKpU+1IIQQQrhN5hbx33+0dI8+BhlH9waEcJDJULUa2se0Uh8KqhyO91pS6QSWlD9+TkN/lx63r3Pu8V70fn3oy9Kv/9i6LQ+txVq9tr6XqO/NdpxT2W6+IIQQQrhtJov47z9aukcfg4yjewNCOMhkqFoN7WNaqY+5U6UUQCgFVs4FXGr/zrnHa69z7vFe9H596MvanSrnfgloaC3W6rX1vUR9b7bjnMr55msN8wtCCCGE05lbxH//0dI9+hhkHN0bEOJABZkMVauhfUwr9dobwvxkVAug5PX0d5cGSIbu+OBOFbhWJtd+ltyWh9ZirV5b30vU92Y7zqlsN18QQggh3DaTRfz3Hy3do48RxnEXiWoPx/vmCXYOJKoVkXqiWsuUuPGH7/9bvv32W/nVr351kvzpP9//h/z+/r+K9dLfj/13LGvP29fLZdtVe/z39//1/HxqV+3vL3md/N/zTtIF2yY/ExH56u3TuauUnJZEtevSmES1IiSrhRBCCLdMe02PrJtbEtWOlXtkp7WJsM23GtrHtFKvfV0hj/CWZCPC+Z0bl3xlZ8ydKjUNvd651x/6qlLp7y/tL4zNZBLVbsd2nFPZfqIFIYQQwm0zWcR//9HSe+jjQnZvQHP3mAzRJ5wa2se0Ul8ip0pN9gQ39O+UOCZAcy5AcmkgZuzfnwu4wPjMTVBlO7bjnMr2mHrPLwghhBBOZ24R//1HS++hjwvZvQHN3WMyRJ9wamgf00p97K//2BPWUIBibABlKCBRe772788JhFzy92MCNDAuU6LaTx+vCKpsyHacU9luviCEEEK4bSaL+O8/WnoPfVzC5FRZ8DUif6dubk4VW78kp8rYXCmX5Fo59++Mfdz+u3l9TPvO/f2YHDIwLr/+8l5++ou/i8qb6hqyZXKq+IucKhBCCGF82mt6ZN3cts+p0uO9eg+5R3Zau0eELXoUTw3tY1qpj71TxSqN57k7Tc7d+WF56b9v7xSpfWXnkn/33N+fex3b/tp4wDis/aSyrXOnyrpsxzmV7SdaEEIIIdw2k0X89x8t3aOPQcbRvQEhDlSQyVC1GtrHtFIfk1MFQli+UNs1VEv8PGYt1uq19b1EfW+245zKh+P9yVe6vOcXhBBCCKczt4j//qOle/QxyDi6NyDEgQoyGapWQ/uYVuq1N4T2hIQxfu18DVna8tBarNVr63uJ+t5sxzmVD8fToMrh6L8hhBBCCOF0Jov47z9aukcfg4yjewNCHKggk6FqNbSPaaVee0OYn4wwxmWnNVMLpBBUWZftOKfy4cidKhBCCGEU5hbx33+0dI8+RhhHEtUu+BqRExXNSVQr8jqxpk3ciBA61X9+PmeRqHY7GpOo1ju5HoQQQgjnM7+uR9bNLYlqx8o9stPaRNjmWw1fymo+/T6t13KqyOnDGGNjlad1Mj5R7fm1WKuXaNswtb4323FO58nSp1oQQggh3CZzi/i/T2vpHn0MMo7uDQhxoIJMhqrV0D6mlXo9qIIxPmeV82vIlvP/55J6ibJQfW+uja3dfEEIIYRw20wW8d9/tHSPPgYZR/cGhDhQQSZD1WpoH9NKnaAKxtOsQlBliy6Nab75WsNGEEIIIYTTmVvEf+/R0j36GGQc3RsQ4kAFmQxVq6F9TCt1gioYT7MKQZUtujSmdvMFIYQQwm0zWcR/79HSPfoYYRxJVLvga0ROVDQnUW0pyeaek1n20rcPD/Im/vIOK5U3IvI6Ma0IiWrXrNKY2sTc3sn1IIQQQjid9poeWTe3JKodK/fITgRHiLCdsxrax7RSt5+qc6dK/2OGt2mV0zVkacv5/3NJvcTaHLq0vkeXxtR+ogUhhBDCbTNZxH/v0dI9+hhkHN0bEMJBJkPVamgf00q99obQuz97MOO8bau8Dkameqmc/z+X1EuszaFL63t0aUzzzdcaNoIQQgghnM7cIv57j5bu0ccg4+jegBAOMhmqVkP7mFbqtTeE3v3ZgxnnbVuFnCpbdGlM7eYLQgghhNtmsoj/3qOle/QxyDi6NyCEg0yGqtXQPqaVOolq/Y8Z3qZVCKps0aUxzTdfa9gIQgghhHA6c4v47z1aukcfI4wjiWoXfI3IiYpIVLs9kTR020rrqLaGbJlEtevQUKJa7+R6EEIIIZzP/LoeWTe3JKodK/fITmsTYZtvNbSPaaXOnSr+xwxv0yrcqbJFl8a09KkWhBBCCLfJ3CL+e4+W3kMfF7J7A5q7x2SIPuHU0D6mlTpBFf9jhrdpFYIqW3RpTO3mC0IIIYTbZrKI/96jpffQx4Xs3oDm7jEZok84NbSPaaVOUMX/mOFtWqUcRCGosm6XxjTffK1hIwghhBDC6cwt4r/3aOk99HEJ7yKnSg8dyKkiIudzqvz4+ERyqvQR+S22LZtTxTJ/ToScKmtRLafK11++5FX5w5/fu38XHEIIIYTTmfTD93Hf/4n0yakSRe6RnQiOHsVTQ/uYVurpk3RL7/7swYzztq0yfHcKd6qsz6UxPRzv9dPHq2eLrOOTNgghhBBeztwi/nuPlu7RxyDj6N6AEA4yGapWQ/uYVuq1N4Te/dmDGedtW4WcKlt0aUwPx9Ogyho2hBBCCCGczmQR/71HS/foY5BxdG9ACAeZDFWroX1MK3VyqvgfM7xNqxBU2aJLY5pvvtawEYQQQgjhdOYW8d97tHSPPgYZR/cGhDhQQSZD1WpoH9NKnaCK/zHD27QKQZUtujSmdvMFIYQQwm0zWcR/79HSPfoYYRx3kaj2cLxvnmDnQKJaETmfqDav7z2ZZQ+RNHTbsolqk0hUu27VEtXm8k6uByGEEMLptNf0yLq5JVHtWLlHdlqbCNt8q6F9TCt17lTxP2Z4m1bhTpUtujSm9hMtCCGEEG6bySL+e4+W3kMfF7J7A5q7x2SIPuG0QFsu1Qmq+B8zvE2rlIMoBFXW7dKY5puvNWwEIYQQQjiduUX89x4tvYc+LmT3BjR3j8kQfcJphamsUn7jVntD6N2fPZhx3rZVTteQpS3n/88l9RJrc+jS+h5dGlO7+YIQQgjhtpks4r/3aOk99HEhuzeguXtMhugTTitMZZXyG7faG0Lv/uzBjPO2rTJ8dwpBlfW5NKb55msNG0EIIYQQTmduEf+9R0v36GOEcSRR7YKvETlR0bmElnnyyzeiovLmuf7j4xNtYs03F047lTe7T4B5qUgaum2RqHabGkpU651cD0IIIYTzmV/XI+vmtn2i2h7v1XvIPbLT2kTYFvDjND8O1Be19xitzLqCNuB5x0+FRLVbc2lMS59qQQghhHCbzC3iv/do6R59DDKO7g0IcaCCTIZBq4iK6DPzcs7keqJavcivX6/ULsyYxLEKQZUtujSmdvMFIYQQwm0zWcR/79HSPfoYZBzdGxDiQAWZDKOthXLO5KV+/af0erXnMWMSwSoEVbbo0pjmm681bAQhhBBCOJ25Rfz3Hi3do48RxpGcKgu+RvTv1OWyOVVsDoGkWj6IS/MulF6v9jx6EmOybZFTZZsipwqEEEIYn/l1PbJubsmpMlbukZ3WJsK2vLVQzpnMnSrrOEZ4e1Yp35nCnSrrdmlMS59qQQghhHCbzC3iv/do6R59DDKO7g0IcaCCTIbR1kI5Z3LtDeESr1d7HjMmEaxyuoYsbTn/fy6pl1ibQ5fW9+jSmB6O9/rp49Wz17AhhBBCCOF0Jov47z1aukcfg4yjewNCHKggk2G0tVDOmVx7Q7jE69Wex4xJBKsM351CUGV9Lo3p4XgaVBH5/+y9v44kybKnZ7NPQFDqKxDYVYcAZ4AjJ5ArECP0PADBI5HS6HeIy4ORG8xFFfWRSOnsE5wGdnCFHWBkAjUtUF2Bwqr9Bkah2qutvMLjX7q7eVh8BvzweWR6Rbibe1ZaWUZajREQQgghhHA7rUT8Y4+W6jHHIH50H0CIhQqyGVZLJ9qWSaU/CGtcr/Q8wicRpPI2cZIfk1QZT1M+vT1wpwqEEEIYiUki/rFHS/WYYwQ/Uqi24jWiFyqyRqHa8Q2fHNsoVHtMWypUK0KxWgghhPDIzN/TI9vlSqHateae2YmgCBm2LdKJtmUShWrHWCN0PKlwp8oRNeXT/BMtCCGEEB6bSSL+sUdL9ZhjED+6DyCEgmyG1dKsnb7mkyRfZNtTxwiheU29hlSmkiqaJU3WHb+lTL7O9xyfUTpBG3yNEAhCCCGEcD+tRPxjj5bqMccgfnQfQAgF2QyrpVnb3oEyWUPlaeFOlaeFaz5NX3vPz5/leXW4/uTaDOqf0Z9X+fqaEfM6anmnyuwe2nF8Rk35Ng++IIQQQnhsJon4xx4t1WOOQfzoPoAQCrIZVkuzdvrDb+4/ldg/CCfPO/OHp5rnp35eF35+6fwRn3/jpw7XL67tgP4Z/XmVt4nJ2deXTCdNlo4n90rh8a3HZ9SUb23wNUIgCCGEEML9tBLxgIOcWwAAIABJREFUjz1aqsccI/iRQrUVrxG9UJG1vHDsn0/Pj38vIk9fKBNtMccYhi3bU3b8yy/vJ4vY1ihUmxuFarfbUqFa7+J6EEIIIbyf9n09sl2uFKpda+6ZndYiw1ZfmrWXvv6T897rzT2P/HzCOtT1pWbt/Jg7VcbTlG+nPtWCEEII4TFpJeIfe7TUGeZYSe4DaK4em+FsG06z9lxSZbLGyp3Xm3se+fmEdajrS83a+TFJlfE05ds8+IIQQgjhsZkk4h97tNQZ5lhJ7gNorh6b4WwbTrP20p0q+fG915t7Hvn5hHWo60vN2vkxSZXxNOVbG3yNEAhCCCGEcD+tRPxjj5Y6wxxr6BQ1VXrYjZoq8t33z3UaPnz4+FLnwdZ8sMdb6y7k18t/nloOb83DJ6xDPUv1T+Zqo1BTZTyjpgqEEEIYn/Z9PbJdru1rqkQx98xOBJ0ti6dZmztVxpOHT1iHur7UrJ0fc6fKeJry7dSnWhBCCCE8Jq1E/GOPluoxxyB+dB9Aez0VxGbYLc3aJFXGk4dPWIe6vpySfY6kynia8m0efEEIIYTw2EwS8Y89WqrHHIP40X0A7fVk+JQ9xmbYJc3a9r/7kFQZQy188nzO4t/7i8+j9Uq+zJ+wj71Oqmix3/TxWy7toa3HZ9SUb23wNUIgCCGEEML9tBLxjz1aqsccg/jRfQDVFqO0uV8eI6lSTZq1UzJFpJxUsQmXe6839zxq55Olcx52HUp3sw0ilbfJEJXtd6rIxPNz65Y/vvX4jJrybf7+BCGEEMJjM0nEP/ZoqR5zjODHwxeqvT08yk8/PL567NffnovppKI6t4dH+d//x59FUsHUpwbj+Ncv1zip5S7NC9XmpFBte2vhk6VzHnUdRhx37UK1+WMUqm1jpUK19n3qr3/7yxBF9iCEEEK4ndb++P0/9w41utrlSqHateae2dmj28Ojfv70blazWcSlO1U2Pv/mGpXPP/LzKuYOlImv/0zdubJ1vbXQnnvs7Grhk6VzHnUdRh23GurE8do7VabOlT+2xi9bj8+oKd/m71cjfMIGIYQQwv1MEvGPPVrqDHOsJPcBbNZSMmUqufLmPGuK1W54vniNSucf7Xk1z6vMJ1VS+1W/jdJCe+6xs6uFT5bOedR1GHXcaqgTxyRVxtOUb28Pr5MqImMEhBBCCCHcTisR/9ijpc4wx0pyH8DuBb77TpWKuj08utdd8NRTJhWSKt5q4ZOlcx51HUYdtxrqxDFJlfE05dv8vQhCCCGEx2aSiH/s0VJnmGMluQ/g7oUuJVNmN8PSXRo7xuHti57SrM2/VB5PLXyydM6jrsOo41ZDnTgmqTKepnxrg68RAkEIIYQQ7qeViH/s0VI95hjBj4cvVJvs9vC1CGBeTOdWKlT7vVSz28Nj+EJF1vLCsbYA7YcPH98Uqk1Godp+RqHa9TbquG2x02R7CtXmhVOnHqNQbR0rFapN5l1cD0IIIYT3076vR7bLtX2h2tvDY4hiuO6Znda6PTy+/coKGba7pFk7fWLO13/GUQufLJ3zqOsw6rjVUCeOuVNlPE35dupTLQghhBAek1Yi/rFHS/WYYxA/ug8gxEIF2QyrpVk7JVNEykkVm3C593pzz6N2Plk651HXYdRxq6FOHJNUGU9Tvs2DLwghhBAem0ki/rFHS/WYYxA/ug8gxEIF2QyrpVl7qaZKznuvN/f8mfXsh2f323YtLZ2zxTV7aNRxp3HZB+3x66RKud/UuWSCS6+rrcdn1JRvbfA1QiAIIYQQwv20EvGPPVqqxxwj+DFMTZU5u3X4ntaNmirFmioi8qbGCjVV2tiSn2qef8/zo9qo425VUyXfI9RUqWfUVIEQQgjj076vR7bLlZoqa809s9NaZNjqS7M2//1nDC35qeb59zw/qkYdtxrqxPHer/9MnX+NX7Yen1FT/p76VAtCCCGEx6SViH/s0VI95hjEj+4DCLFQQTbDamnWJqkyhpb8VPP8e54fVaOOWw114pikynia8ncefEEIIYTw2EwS8Y89WqrHHIP40X0AIRYqyGZYLc3aJFXG0JKfap5/z/OjatRxq6FOHJNUGU9T/rbB1wiBIIQQQgj300rEP/ZoqR5zDOJH9wGEWKggm2G1NGuTVBlDS36qef49z4+qUcethjpxTFJlPE35Ow++IIQQQnhsJon4xx4t1WOOEfxIodqK14heqMhaqVBtqTBtMgrVtjUK1e6zUcdNodrj2VKhWhGK1UIIIYRHZv6eHtkuVwrVrjX3zE4ERciwbZFm7aenZ4mU71RJfbTC9eaeP7OW/FTz/HueH1WjjlsNdeKYO1XG05S/80+0IIQQQnhsJon4xx4t1WOOQfzoPoAQCrIZVkuz9tLXf3Lee72558+sJT/VPP+e50fVqONWQ504Jqkynqb8bYOvEQJBCCGEEO6nlYh/7NFSPeYYxI/uAwihIJthtTRrzyVVppIs915v7vkza8lPNc+/5/lRNeq41VAnjkmqjKcpf98eHvXzp3cvGiEghBBCCOF+Jon4xx4t1WOOQfzoPoAQCrIZVkuzNoVqx9CSn2qef8/zo2rUcauhThyTVBlPU/6+PbxOqoiMERBCCCGEcDutRPxjj5bqMccIfqRQbcVrRC9UZK1UqPbH9+/lw4ePFKp1MgrV7rNRx02h2uNZqVDtTz98LVb7628/uxfZgxBCCOF+Jvvj99h//12uFKpda+6ZndYiw1ZfmrW5U2UMLfmp5vn3PD+qRh23GurEMXeqjKcpf099qgUhhBDCY9JKxD/2aKkzzLGS3AfQXD02w9k2nGZtkipjaMlPNc+/5/lRNeq41VAnjkmqjKcpf+fBF4QQQgiPzSQR/9ijpc4wx0pyH0Bz9dgMZ9twmrXtf/chqTLOurQ8/57nR9Wo41ZDnTgmqTKepvxtg68RAkEIIYQQ7qeViH/s0VJnmGMNnaKmSg+7UVNFRER++aVcUyX1oaZKO6Omyj4bddzUVDmelWqqJPP+DjiEEEII76d9X49sl2v7mipRzD2zE0Fny+Jp1l76+k/Oe6839/yZteSnmuff8/yoGnXcaqgTx9ypMp6m/D31qRaEEEIIj0krEf/Yo6V6zDGIH90HEEJBNsNqadaeS6pMJVnuvd7c82fWkp9qnn/P86Nq1HGroU4ck1QZT1P+zoMvCCGEEB6bSSL+sUdL9ZhjED+6DyCEgmyG1dKsTaFaz3X46mJ7nD9XQ0vnbHHNHhp13Glc9kF7/Dqpohntc29ZemzudbX1+Iya8rcNvkYIBCGEEEK4n1Yi/rFHS/WYYxA/ug8gxEIF2QyrpVmbpIr/OqzxU+3rRVmHUcethjpxPHWnytTPTT1XemzOL1uPz6gpf+fBF4QQQgiPzSQR/9ijpXrMMYIfT1Go9vbw2LzAzo1CtS8FaEuFau0xhWrrmC2G+Y2oqHwj33x5Sdt2LVs6Z4tr9rBRx53GpfLNy2P22L6+7PrnP0eh2n62VKhWhGK1EEII4ZGZv6dHtsuVQrVrzT2z01pk2OpLszZ3qviuQ85WPlk651HXYdRx23XVieM1d6rIxM+W9s+SX7Yen1FTvs8/0YIQQgjhsZkk4h97tNQZ5lhJ7gNorh6b4WwbTrO2/e8+JFV6+P5tzQ3LvF1LS+dscc0eGnXcdl2T7PGWpMrca8k+Nve62np8Rk353gZfIwSCEEIIIdxPKxH/2KOlzjDHSnIfQHP12Axn23CatVMyRaScVLEJl3uvN/d8dE35Imcrnyyd86jrMOq47bqqTL/uVMr7IOfS/lnyy9bjM2rK93nwBSGEEMJjM0nEP/ZoqepzfCpogLneKfcBHG8zOF1jJGnWXvr6T857rzf3fJ+5+9+9YNs5U7v2WJfO5+2bVvPyHlepQ/7ff6Z+bu71M/X83Otq6/EZlftU5XXwNUIgCCGEEML9tBLxjz1aqvocn962I/iRQrUVrxG9UJG1LYVqReRN4dojF6r1LsY5V2h0rnBtDaNQbV/LC87m7aenb14VqrU/VyogS6HatrZUqNa7uB6EEEII7+Pf/4//Rz7+T/9ttdjhP/67f1ftXLXtcq1cqPZJRL43lOe/o5MduSiue2antXpkvyJk2LZIs/aZCtXuu1abuypSe4ktrr3n+VE16rjtOk615+9UWX796MRjc3t96/EZlftUZfpTLQghhBAek58/vdO/f/utfv70TkWe3+///u23k8z192+/PZRuD49Nz299mnR7OOSdQO4DaK4eC3KwRb9bmrVJqtT/mS2+WGKvufdcB+817TkuLbTzmipb9syafZI/vvX4jMp9qiJvggMIIYQQHpdzSZXULiVVpvrOPb/0862fT3Oudv6nt4mn28PrpEqu28MhkizuA2iuHgsw+CJXl2btMyZVntn/Tgh7rtReYotrt55nT406bruOU22SKuMp96mKvAoGvANBCCGEEN7H28O6uzdEpmMF+/zcHS2ln+/5fJp3tfM/vfXB7WE+qZJr7rpeoqZKxWv88ft/bnqNkWxLTZXUtscRaqpsuebavh8//mOxj63/YWtuzLGWRa6pMmItELvXRORN+8OHj/LLL8t7kZoq/YyaKhBCCGF82vd1EZH/+b/8l+4xRw/7//6X/1X+u//7/2py7v/+P/6/8v33z39H//TDY7Hfr799/Tt+5Jor7pmd1ipl2I52jZGkWdv+d5+j36nyfK51dw/M9Zv6mXX9tvtiiS3Wfc/z48v/7hQrla97LW+rfP035lvWZapd+vn88a3HZ1TuU5Wvn2oliYzxSRuEEEIIt9NKxD/2aKnqc8z/ffLT8zUO+HWfXO4DON5mcLrGSNKsnZIpIuWkik243Hu9uedrzm3u+S3XXNd3XfLF9tHs50qspaXz1b6ej/xfX1N7TSceI6kynqbWKQ8OIIQQQnhsJon4xx4tVX2OhaRKAH+6D+B4m8HpGiNJs/ZSTZWc915v7vmac5t7fss11/Zd02/KF0vs7RtU199aWFuSKuNpap1ssDBCIAghhBDC/bQS8Y89Wqr6HJ/eKogf3QdwvM3gdI2RpFl7LqkylWS593pzz9ec29zzW665tu+aflO+WGJv36C6/tbC2pJUGU9T65QHXxBCCCE8NpNE/GOPluoxxwh+pFBtxWukQkVnsMiFatcW/WxRqHZNv7lCoyXWsi0FUbH7rVSoNvHPJ6FQ7WC2VKhWhGK1EEII4ZGZv6dHtsv133f5O3rkArRrzT2zE0ERMmxbpFk70r9UXjqX7rjm2r5r+k35Yom9fYPq+lsLa8udKuNpap3yT7QghBBCeGwmifjHHi3VY45B/Og+gBAKshlWS7M2SZX7zrml35QvltjbN6iuv7WwtiRVxtPUOtnga4RAEEIIIYT7aSXiH3u0VI85BvGj+wBCKMhmWC3N2iRV7jvnln5Tvlhib9+guv7WwtqSVBlPU+uUB18QQgghPDaTRPxjj5bqMccgfnQfQAgF2QyrpVnb/ncfkir7x7em35QvltjbN6iuv7WwtiRVxtPUOtnga4RAEEIIIYT7aSXiH3u0VI85RvAjhWorXiN6oSJrU4VqRZ6LZpYK1aY+FKq9rx+Fas9jFKo9ni0VqvUurgchhBDC+2nf1yPb5Uqh2rXmntlpLTJs9aVZe+nrPznXX+P5VKX23GN7tXSu9PyWa67tu6bflC+W2Ns3qK6/0wP5Y893qmxbl6n2M+df53uOzyid4NSnWhBCCCE8Jq1E/GOPljrDHCvJfQDN1WMznG3DadaeS6pMJVn2XGOqPfdYjbnNPb/lmnvmvMUvS+ztG1TX31pY21pf/1m7nluPz6ipdcqDLwghhBAem0ki/rFHS51hjpXkPoDm6rEZzrbhNGu3KFSbX2OqPfdYjbnNPb/lmnvmvMUvS+ztG1TX31pYW5Iq42lqnW4Pj/r507sXiYwREEIIIYRwO61E/GOPljrDHGvoFDVVetiNmiovtVJKNVXs8db6ItRUme5DTZXY1qumypqf23N8RivVVPnph691VX797Wf374JDCCGEcD+T/fF77L//Ltf2NVWimHtmJ4LOlsXTrM2dKvedc0u/KV8ssbdvUF1/a2FtuVNlPE2t0+2BO1UghBDCKLQS8Y89WqrHHIP40X0AIRRkM6yWZm2SKvedc0u/KV8ssbdvUF1/a2FtSaqMp6l1yoMvCCGEEB6bSSL+sUdL9ZhjED+6DyCEgmyG1dKsbf+7D0mV/eNb02/KF0vs7RtU199aWFuSKuNpap1s8DVCIAghhBDC/bQS8Y89WqrHHIP40X0AIRYqyGZYLc3aKZkiUk6q2ITLnmtMteceqzG3uee3XHPPnLf4ZYm9fYPq+lsLa0tSZTxNrVMefEEIIYTw2EwS8Y89WqrHHCP48RSFam8Pj80L7NwoVDtbqDYnhWr396NQ7XmMQrXHs1KhWmvexfUghBBCuJ/5e3pku1wpVLvW3DM7rUWGrb40a8/VVJm6c2XPNabac4/VmNvc81uuuWfOW/yyxN6+QXX9rYW15U6V8TS1TvknWhBCCCE8NpNE/GOPljrDHCvJfQDN1WMznG3DadamUO1959zSb8oXS+ztG1TX31pYW5Iq42lqnWzwNUIgCCGEEML9tBLxjz1a6gxzrCT3ATRXj81wtg2nWZukyn3n3NJvyhdL7O0bVNffWlhbkirjaWqd8uALQgghhMdmkoh/7NFSZ5hjJbkPoLl6bIazbTjN2iRV7jvnln5Tvlhib9+guv7WwtqSVBlPU+tkg68RAkEIIYQQ7qeViH/s0VI95hjBjxSqrXiN6IWKrG0tVJuMQrX396NQ7XmMQrXHs6VCtd7F9SCEEEJ4P+37emS7XNsXqu3xt3oPc8/stBYZtvrSrJ3uQCkVps2P91xjqj33WI25zT2/5Zp75rzFL0vs7RtU199aWFvuVBlPU+s09akWhBBCCI9JKxH/2KOleswxiB/dBxBioYJshtXSrJ2SKSLlpIpNuOy5xlR77rEac5t7fss198x5i1+W2Ns3qK6/tbC2JFXG09Q65cEXhBBCCI/NJBH/2KOleswxiB/dBxBioYJshtXSrL1UUyXnnmtMteceqzG3uee3XHPPnLf4ZYm9fYPq+lsLa0tSZTxNrZMNvkYIBCGEEEK4n1Yi/rFHS/WYYwQ/UlOl4jWif6fO2paaKiLypsYKNVX296OmynmMmirHM2qqQAghhPFp39cj2+VKTZW15p7ZaS0ybPWlWfve//7z/Nirrq8eK7XnHturpXOl57dcc23fNf2mfLHE3r5Bddc6PZA/9nynyp51efs6Xnqd7zk+o3SCU59qQQghhPCYtBLxjz1aqsccg/jRfQAhFirIZlgtzdp1kirz11jbt+bc5p7fcs21fdf0m/LFEnv7BtVday2s7Z6v/9yznluPz6ipdbo9POrnT+9eNEJACCGEEML9TBLxjz1aqsccg/jRfQAhFirIZlgtzdo1kyrPbe5UWdMnH0uJvX2D6q51eiB/bP+dKvbxda/zPcdnlE7w9vA6qSIyRkAIIYQQwu20EvGPPVqqxxyD+NF9ACEWKshmWC3N2vWTKtOP5e25x2rMbe75Lddc23dNvzlfldjbN6juWmthbe+9U2XrGLcen1FT63R74E4VCCGEMBKTRPxjj5bqMccIfqRQbcVrRC9UZK1UqLZUmDZZqVDtXPHV0vOln685t7nnKVS7b/zYs21Z65qFau8ZI4Vql22pUK0IxWohhBDCIzN/T49slyuFateae2YngiJk2LZIs/bT09dPzUt3qqQ+uuJ8pcfy9txjNeY29/yWa67tu6bfnK9K7O0bVHettbC23KkynqbWKf9EC0IIIYTHZpKIf+zRUj3mGMSP7gMIoSCbYbU0ay99/Sfn0vlKj+XtucdqzG3u+S3XXNt3Tb85X5XY2zeo7lprYW1JqoynqXWywdcIgSCEEEII99NKxD/2aKkecwziR/cBhFCQzbBamrXnkipTSZal85Uey9tzj9WY29zzW665tu+afnO+KrG3b1DdtdbC2pJUGU9T65QHXxBCCCE8NpNE/GOPluoxxyB+dB9ACAXZDKulWZtCtfedc0u/OV+V2Ns3qO5aa2FtSaqMp6l1ssHXCIEghBBCCPfTSsQ/9mipHnOM4EcK1Va8RvRCRdZKhWp/fP9ePnz4SKHajefc0o9CtTGMQrUxbalQrXdxPQghhBDeT/u+HtkuVwrVrjX3zE5rkWGrL83a3Kly3zm39JvzVYm9fYPqrrUW1pY7VcbT1DpNfaoFIYQQwmPSSsQ/9mipM8yxktwH0Fw9NsPZNpxmbZIq951zS785X5XY2zeo7lprYW1JqoynqXXKgy8IIYQQHptJIv6xR0udYY6V5D6A5uqxGc624TRr2//uQ1Jl//jW9JvzVYm9fYPqrrUW1pakyniaWicbfI0QCEIIIYRwP61E/GOPljrDHGvoFDVVetiNmioi8lzfoVRTJfWhpsp9/aipEsOoqRLTqKkCIYQQxqd9X49sl2v7mipRzD2zE0Fny+Jp1l76+k/OpfOVHsvbc4/VmNvc81uuubbvmn5zviqxt29Q3bXWwtpyp8p4mlqnqU+1IIQQQnhMWon4xx4t1WOOQfzoPoAQCrIZVkuz9lxSZSrJsnS+0mN5e+6xGnObe37LNdf2XdNvzlcl9vYNqrvWWlhbkirjaWqd8uALQgghhMdmkoh/7NFSPeYYxI/uAwihIJthtTRrU6j2vnNu6TfnqxJ7+wbVXWstrC1JlfE0tU42+BohEIQQQgjhflqJ+MceLdVjjkH86D6AEAsVZDOslmZtkir3nXNLvzlfldjbN6juWmthbUmqjKepdbo9POrnT+9eNEJACCGEEML9TBLxjz1aqsccI/jxFIVqbw+PzQvs3ChU+1KAtlSo1h5TqHZ/PwrVxjAK1ca0UqHan374Wqz2r3/7yxBF9iCEEEK4ndb++D3233+XK4Vq15p7Zqe1yLDVl2Zt7lS575xb+s35qsTevkF111oLa8udKuNpap1uD9ypAiGEEEZikoh/7NFSZ5hjJbkPoLl6bIazbTjN2va/+5BU2T++Nf3mfFVib9+gumuthbUlqTKeptbJBl8jBIIQQggh3E8rEf/Yo6XOMMdKch9Ac/XYDGfbcJq1UzJFpJxUsQmXpfOVHsvbc4/VmNvc81uuubbvmn5zviqxt29Q3bXWwtqSVBlPU+uUB18QQgghPDaTRPxjj5Y6wxwryX0AzdVjM5xtw2nWXvr6T86l85Uey9tzj9WY29zzW665tu+afnO+KrG3b1DdtdbC2pJUGU9T62SDrxECQQghhBDup5WIf+zRUj3mGMGPFKqteI3ohYqsbSlUKyJvCtdSqHZ/PwrVxjAK1ca0UqHaZN7F9SCEEEJ4P+37emS7XNsXqu3xt3oPc8/stBYZtvrSrE2h2vvOuaXfnK9K7O0bVHettbC23KkynqbWaepTLQghhBAek1Yi/rFHS/WYYxA/ug8gxEIF2QyrpVmbpMp959zSb85XJfb2Daq71lpYW5Iq42lqnfLgC0IIIYTHZpKIf+zRUj3mGMSP7gMIsVBBNsNqadYmqXLfObf0m/NVib19g+qutRbWlqTKeJpaJxt8jRAIQgghhHA/rUT8Y4+W6jHHCH6kpkrFa0T/Tp21LTVVUtseU1Nlfz9qqsQwaqrENGqqQAghhPFp39cj2+VKTZW15p7ZaS0ybPWlWdv+dx/uVNk/vjX95nxVYm/foLprrYW15U6V8TS1TlOfakEIIYTwmLQS8Y89WqrHHIP40X0AIRYqyGZYLc3aKZkiUk6q2ITL0vlKj+XtucdqzG3u+S3XXNt3Tb85X5XY2zeo7lprYW1JqoynqXXKgy8IIYQQHptJIv6xR0v1mGMQP7oPIMRCBdkMq6VZe6mmSs6l85Uey9tzj9WY29zzW665tu+afnO+KrG3b1DdtdbC2pJUGU9T62SDrxECQQghhBDup5WIf+zRUj3mGMSP7gMIsVBBNsNqadaeS6pMJVmWzld6LG/PPVZjbnPPb7nm2r5r+s35qsTevkF111oLa0tSZTxNrVMefEEIIYTw2EwS8Y89WqrHHCP4kUK1Fa8RvVCRNQrVUqh27/ixZ6NQbUxbKlQrQrFaCCGE8MjM39Mj2+VKodq15p7ZiaAIGbYt0qzNv1S+75xb+s35qsTevkF111oLa8udKuNpap3yT7QghBBCeGwmifjHHi3VY45B/Og+gBAKshlWS7M2SZX7zrml35yvSuztG1R3rbWwtiRVxtPUOt0eHvXzp3cvEhkjIIQQQgjhdlqJ+MceLdVjjkH86D6AEAqyGVZLszZJlfvOuaXfnK9K7O0bVHettbC2JFXG09Q63R5eJ1VGCAghhBBCuJ9JIv6xR0v1mGMQP7oPIISCbIbV0qxt/7sPSZX941vTb85XJfb2Daq71lpYW5Iq42lqnW4P3KkCIYQQRqGViH/s0VI95hjBjxSqrXiN6IWKrE0VqhV5LppZKlSb+lCo9r5+FKqNYRSqjWlLhWq9i+tBCCGE8H7a9/XIdrlSqHatuWd2WosMW31p1l76+k/OpfOVHsvbc4/VmNvc81uuubbvmn5zviqxt29Q3bXWwtpyp8p4mlqnqU+1IIQQQnhMWon4xx4tdYY5VpL7AJqrx2Y424bTrD2XVJlKsiydr/RY3p57rMbc5p7fcs21fdf0m/NVib19g+qutRbWlqTKeJpapzz4ghBCCOGxmSTiH3u01BnmWEnuA2iuHpvhbBtOszaFau8755Z+c74qsbdvUN211sLaklQZT1PrZIOvEQJBCCGEEO6nlYh/7NFSZ5hjDZ2ipkoPu1FT5aVWSqmmij2mpsr+ftRUiWHUVIlp1FSBEEII49O+r0e2y7V9TZUo5p7ZiaCzZfE0a3Onyn3n3NJvzlcl9vYNqrvWWlhb7lQZT1PrNPWpFoQQQgiPSSsR/9jpRTeDAAAgAElEQVSjpXrMMYgf3QcQQkE2w2pp1iapct85t/Sb81WJvX2D6q61FtaWpMp4mlqnPPiCEEII4bGZJOIfe7RUjzkG8aP7AEIoyGZYLc3a9r/7kFTZP741/eZ8VWJv36C6a62FtSWpMp6m1skGXyMEghBCCCHcTysR/9ijpXrMMYgf3QcQYqGCbIbV0qydkiki5aSKTbgsna/0WN6ee6zG3Oae33LNtX3X9JvzVYm9fYPqrrUW1pakyniaWqc8+IIQQgjhsZkk4h97tFSPOUbw4ykK1d4eHpsX2LlRqHa2UG1OCtXu70eh2hhGodqYtlSoVoRitRBCCOGRmb+nR7bLlUK1a809s9NaZNjqS7P2XE2VqTtXls5Xeixvzz1WY25zz2+55tq+a/rN+arE3r5BdddaC2vLnSrjaWqd8k+0IIQQQnhsJon4xx4tdYY5VpL7AJqrx2Y424bTrE2h2vvOuaXfnK9K7O0bVHettbC2JFXG09Q62eBrhEAQQgghhPtpJeIfe7TUGeZYSe4DaK4em+FsG06zNkmV+865pd+cr0rs7RtUd621sLYkVcbT1DrlwReEEEIIj80kEf/Yo6XOMMdKch9Ac/XYDGfbcJq1Sarcd84t/eZ8VWJv36C6a62FtSWpMp6m1skGXyMEghBCCCHcTysR/9ijpXrMMYIfKVRb8RrRCxVZ21qoNhmFau/vR6HaGEah2phWKlT70w9fi9X++tvP7kX2IIQQQrifyf74Pfbff5dr+0K1Pf5W72HumZ3WIsNWX5q10x0opcK0+fHS+UqP5e25x2rMbe75Lddc23dNvzlfldjbN6juWmthbblTZTxNrdPt4VE/f3r3IpExPmmDEEII4XZaifjHHi3VY45B/Og+gBALFWQzrJZm7ZRMESknVWzCZel8pcfy9txjNeY29/yWa67tu6bfnK9K7O0bVHettbC2JFXG09Q63R5eJ1VGCAghhBBCuJ9JIv6xR0v1mGMQP7oPIMRCBdkMq6VZe6mmSs6l85Uey9tzj9WY29zzW665tu+afnO+KrG3b1DdtdbC2pJUGU9T62SDrxECQQghhBDup5WIf+zRUj3mGMSP7gMIsVBBNsNqadaeS6pMJVmWzld6LG/PPVZjbnPPb7nm2r5r+s35qsTevkF111oLa0tSZTxNrVMefEEIIYTw2EwS8Y89WqrHHCP4kUK1Fa8RvVCRNQrVUqh27/ixZ6NQbUwrFaq15l1cD0IIIYT7mb+nR7bLlUK1a809s9NaZNjqS7M2/1L5vnNu6TfnqxJ7+wbVXWstrC13qoynqXXKP9GCEEII4bGZJOIfe7RUjzkG8aP7AEIsVJDNsFqatUmq3HfOLf3mfFVib9+gumuthbUlqTKeptbJBl8jBIIQQggh3E8rEf/Yo6V6zDGIH90HEGKhgmyG1dKsTVLlvnNu6TfnqxJ7+wbVXWstrC1JlfE0tU558AUhhBDCYzNJxD/2aKkec4zgR2qqVLxG9O/UWSvVVPnz6fl5aqpsO+eWftRUiWHUVIlp1FSBEEIIYzN/T49slys1Vdaae2YngiJk2LZIs3b6Lz8i5TtV7H8CWjpf6bG8PfdYjbnNPb/lmmv7ruk356sSe/sG1V1rLawtd6qMp6l1yj/RghBCCOGxmSTiH3u0VI85BvGj+wBCKMhmWC3N2ktf/8m5dL7SY3l77rEac5t7fss11/Zd02/OVyX29g2qu9ZaWFuSKuNpap1s8DVCIAghhBDC/bQS8Y89WqrHHIP40X0AIRRkM6yWZu25pMpUkmXpfKXH8vbcYzXmNvf8lmuu7bum35yvSuztG1R3rbWwtiRVxtPUOuXBF4QQQgiPzSQR/9ijpXrMMYgf3QcQQkE2w2pp1qZQ7X3n3NJvzlcl9vYNqrvWWlhbkirjaWqdbPA1QiAIIYQQwv20EvGPPVqqxxwj+JFCtRWvEb1QkbVSodof37+XDx8+Uqh24zm39KNQbQyjUG1MWypU611cD0IIIYT3076vR7bLlUK1a809s9NaZNjqS7M2d6rcd84t/eZ8VWJv36C6a62FteVOlfE0tU5Tn2pBCCGE8Ji0EvGPPVrqDHOsJPcBNFePzXC2DadZm6TKfefc0m/OVyX29g2qu9ZaWFuSKuNpap3y4AtCCCGEx2aSiH/s0VJnmGMluQ+guXpshrNtOM3a9r/7kFTZP741/eZ8VWJv36C6a62FtSWpMp6m1un28KifP717kcgYASGEEEIIt9NKxD/2aKkzzLGS3AcQQmfbcJq1UzJFpJxUsQmXpfOVHsvbc4/VmJt9zGrrNdf2XdNvzlcltvRNq3WIri1rrYW1JakynqbW6fbwOqkyQkAIIYQQwv1MEvGPPVrqDHOsoVMUqu1hNwrVzhaqzXnkQrV7rkmhWiw3CtXGtFKh2p9++Fqs9q9/+8sQRfYghBBCuJ3W/vg99t9/lyuFateae2Yngs6WxdOsPVdTZerOlaXzlR7L23OP1ZibfSx/fMs11/Zd02/OVyW29E2rdYiuLWuthbXlTpXxNLVO+SdaEEIIITw2k0T8Y4+W6jHHIH50H0AIBdkMq6VZe2+h2ue2vtC23/Z72557rMbcSmPMx7f1nPf0m/LFElv5puU6RNeWtdbC2pJUGU9T62SDrxECQQghhBDup5WIf+zRUj3mGMSP7gMIsVBBNsNqada+L6myLWlSen7q8XvnVhrjvee8p9+c/0psse73zBORVImqqXXKgy8IIYQQHptJIv6xR0v1mGMEP56ipsqtw/e0btRUma2pkiwdf/Nl26l8I9+IvtA+Zm3ueZVvqtYPsbUQ7NimxrXW0hjXXnttH2qqHNeoqRLTSjVVrHl/FxxCCCGE+5m/p0e2y7V9TZUo5p7ZaS0ybPWlWXvpTpWpfvY8U4/Z46Xnpx6/d24l9vLrWt/3HPPS+Xr4KIq2rLUW1pY7VcbT1Drln2hBCCGE8NhMEvGPPVrqDHOsJPcBNFePzXC2DadZOyVLXv618hfZ9tTxXcrGopXnVmIvv671fc8xL52vh4+iaMtaa2FtSaqMp6l1ssHXCIEghBBCCPfTSsQ/9mipM8yxktwH0Fw9NsPZNpxm7Zdkirz+Qy+/g2XvnSo5l85RY24l9vLrWt/3HPPS+Xr4KIq2rLUW1pakyniaWqc8+IIQQgjhsZkk4h97tNQZ5lhJ7gNorh6b4WwbTrN2njzJH7cJFzU/p4XzTV0r/7mpx2vOrdX51/p1re97jnnpfD18FEVb1loLa0tSZTxNrZMNvkYIBCGEEEK4n1Yi/rFHS/WYYwQ/Uqi24jWiFyqytlSoNhXP/PPpuf8vvzz3TUVs80KOIvKm+Gp+rV5FWXsVfZ279to+FKo9rlGoNqYtFar1Lq4HIYQQwvtp39cj2+XavlBtj7/Ve5h7Zqe1yLDVl2btpTtVxDyn2Tl05txT/ZZYa26tzr/Wr2t933PMS+fr4aMo2rLWWlhb7lQZT1PrNPWpFoQQQgiPSSsR/9ijpXrMMYgf3QcQYqGCbIbV0qxNUqW+X9f6PlGl/ZiXztfDR1G0Za1La0tSZTxNrVMefEEIIYTw2EwS8Y89WqrHHIP40X0AIRYqyGZYLc3aJFXq+3Wt72279ZiXztfDR1G0Za1La0tSZTxNrZMNvkYIBCGEEEK4n1Yi/rFHS/WYYxA/ug8gxEIF2QyrpVmbpEp9v64ZX74Orce8dL4ePoqivWttSVJlPE2tUx58QQghhPDYTBLxjz1aqsccI/iRQrUVrxG9UJG1UqFaW5g2L2ArUi5Uu6b4JYVqp8dnHxeZ923r8VGodL1RqDamlQrV/vTD12K1f/3bX4YosgchhBDC7bT2x++x//67XClUu9bcMzutRYatvjRrPz29/rfJ9vHUN/XR7Bw6c+6pfkusNbdW51/r123jU3M3g3KnygG0da2n1p07VcbT1DrdHh7186d3LxrhEzYIIYQQ7meSiH/s0VI95hjEj+4DCLFQQTbDamnWXvr6j024aHYOnTn3VL8l1ppbq/Ov9eue8Vm1GPPS+Xr4KIq2rvXUepNUGU9T63R7eJ1UERkjIIQQQgjhdlqJ+MceLdVjjkH86D6AEAsVZDOslmbtuaRKOhYhqbLFr/eMr9WYl87Xw0dRtHWtp9abpMp4mlqnPPiCEEII4bGZJOIfe7RUjzlG8CM1VSpeI/p36qyVaqr8+P69fPjwkZoqd1773vFRU2V8o6ZKTCvVVLHm/V1wCCGEEO5n/p4e2S5XaqqsNffMTgRFyLBtkWZt/vtPfb/eM75WY146Xw8fRdHWtZ5ab+5UGU9T65R/ogUhhBDCYzNJxD/2aKkecwziR/cBhFCQzbBamrVJqtT365rxqUyPr9WYl87Xw0dRtGet88dIqoynqXWywdcIgSCEEEII99NKxD/2aKkecwziR/cBhFCQzbBamrVJqtT361rfT42v1ZiXztfDR1G0Za2n1lmFpMqImlqnPPiCEEII4bGZJOIfe7RUjzkG8aP7AEIoyGZYLc3a9r/8kFSp49e1vn8+1lfMH6ulpfPVvt59Gmks+3yV1jp/wr6+1uybpefX/tzW4zNKJ2iDrxECQQghhBDup5WIf+zRUj3mGMGPFKqteI3ohYqsTRWqFXkumlkqVPvhw3OxzdEK1f7j40f5xrwMVL6Rb0RfMdk3jV8u6Zpb+pTGe+ZCtR8//uOl/f79j44jKdsWX6VCtSLy5nVHodqxbKlQrXdxPQghhBDeT/u+HtkuVwrVrjX3zE5rkWGrL83aS1//SY+NeKfKmuvtPfe9Y5nr85rcqXI0bfGVPchfd2v2zdLzW18ba4/PJrtGllOfakEIIYTwmLQS8Y8/WuoMc6wk9wE0V4/NcLYNp1l7LqmSjkXU9NM3FPMH5NTxPOv/4WipIm/G1UJrrrHGHyXfth5fDx9F0RZf2TW1jz2/ttqty9Q1txyfTWn+X9frmXnwBSGEEMJjM0nE/++yljrDHCvJfQDN1WMznG3DadZeLlT7/HdGqztVdOLn9sylxfnvGctcnyV/rD1fzfH18FEUbfGVTvRX4U6V0aSGtm2DrxECQQghhBDup5WIf/zRUmeYYyW5DyCEzrbhNGtPJVVE5grV1rpT5f6ER/6z+or5Vy/6fNK9ps8cS75tPb4ePoqiLb76uqZvX3dTe3hpj9/72lh7fDapoW3nwReEEEIIj80kEf/4o6XOMMcaOkWh2h52o1Dtq4K033/p9yTy0p46rm3vf6lbqDYVmkzWo1DtUqHPfDylQrX2sZrjmztf7etFti2+mtoXFKodz2xxWhGZLFQrQrFaCCGE8MjM39Mj2+VKodq15p7ZiaCzZfFURMV8im7vQEl1HlLb9rXPvTTM8+nxr8fypt/r4y98QsNpgLtBRla+7/f8PHeqjCU1tO38Ey0IIYQQHptJIv7xR0v1mGMQP7oPIISCbIZdUnn9X37yr//YP7Tz471SERWTdEnt9dJX45csiSPy9us0r/vV1jZ/fx3PW3omUt6MBc2u473nIKkyltTQtm3wNUIgCCGEEML9tBLxjz9aqsccg/jRfQAhFirIZtgsldfJlNROz+ftdJx+EaWf//zpnYqofv707s2xmMTG50/vXvrY/qm9Vumc9ufz89nn8+t7Kh/Pi78mkk5bz73Hj58/vXve/5NJL1RSDR+9/u8/86/Tva/ve47PJjW07dvD46vXzQgBIYQQQgj3M0nEP/5oqR5zjODHU9RUuXX4ntbtZDVVkqUaAh8+fHyp7ZDqPIjIy+OW/+lfv9YX+OmHR/lv/of/+nL8+dM/ya+//fzy+OdP//Tm+dLx50//tHrc9mfWnn/rNVpZy/Emn2/t/+tvr19f//K//Xzq2hprrEb9kfS6anUtaqpss7maKj/98PX33l//9pchvhMOIYQQwu209sfvsf/+u1zb11SJYu6ZndYiw9ZO+oX5v1EW83h+bLO7U3c/lB5H48qu6e3h8fR3LGx57dwj+9pqca3857Yen01qaNv577QRPmGDEEII4X4mifjHHy11hjlWkvsAmqvHZjjrhtMvnEuq2P55UsX6Dh6fSWlfoOXXzj0iqTKW1NC27WtjhNcphBBCCPfTSsQ//mipM8yxktwH0Fw9NsNZN5x+4d6kygi/GGH9N5i0L9Dya+cekVQZS2po2/y+gxBCCGMxScQ//mipM8yxktwH0Fw9NsNZN5x+IXeqQLuuaV+g5dfOPSKpMpbU0Lbta2OE1ymEEEII99NKxD/+aKkec4zgRwrVVrxG9EJFU7a2UG2yvFCtiLgXm4L1i3ZRqHbZKFQbz+YK1Sbzfp1CCCGE8H7a9/XIdrm2L1Tb42/1Huae2WktMmztpF+YPjGfKkxr+3OnSmwmpX2Bll8794g7VcaSGtr21KdaEEIIITwmrUT844+W6jHHIH50H0CIhQqyGTZLvzAlU1TKSZXUZ+qXETw+rdK+QMuvnXtEUmUsqaFt8/sOQgghjMUkEf/4o6V6zDGIH90HEGKhgmyGzdIvXKqpYpn/IoJxmJT2BVp+7dwjkipjSQ1t2742RnidQgghhHA/rUT844+W6jHHIH50H0CIhQqyGTZLv3AuqZIfT/0ygsenVdoXaPm1c49IqowlNbRtft9BCCGEsZgk4h9/tFSPOUbwI4VqK14jeqGiKbu3UK13kSnYpmgXhWqXjUK18WxNoVoRfu9BCCGER2b+nh7ZLlcK1a4198xOa5Fhayf9wr3/UnmETDOsm7G/PXCnyhrV8BF3qowlNbRtft9BCCGEsZgk4h9/tFSPOQbxo/sAQixUkM2wWfqFe5Mq1nfw+ExK+wItv3buEUmVsaSGtm1fGyO8TiGEEEK4n1Yi/vFHS/WYYxA/ug8gxEIF2QybpV/InSrQKu0LtPzauUckVcaSGto2v+8ghBDCWEwS8Y8/WqrHHCP4kZoqFa8R/Tt1U5bXVPnw4bmWADVVzslk1FRZNmqqxDNqqkAIIYTxmb+nR7bLlZoqa809sxNBETJse6RfmP7Lj0r5TpXUx2Z3R8g0w7oZ+9sDd6qsUQ0fcafKWFJD2+b3HYQQQhiLSSL+8UdL9ZhjED+6DyCEgmyGzdIvXPr6j2X+iwjGYVLaF2j5tXOPSKqMJTW0bfvaGOF1CiGEEML9tBLxjz9aqsccg/jRfQAhFGQzbJZ+4VxSJT+e+mUEj0+rtC/Q8mvnHpFUGUtqaNv8voMQQghjMUnEP/5oqR5zDOJH9wGEUJDNsFn6hfz3H2jXNe0LtPzauUckVcaSGtq2fW2M8DqFEEII4X5aifjHHy3VY44R/Eih2orXiF6oaMryQrX/+PhR/nxaX6hWhKKNUWiNQrXLRqHaeLamUK336xRCCCGE99O+r0e2y5VCtWvNPbPTWmTY2km/kDtVoF3XtC/Q8mvnHnGnylhSQ9ue+lQLQgghhMeklYh//NFSZ5hjJbkPoLl6bIazbjj9wr1JlRF+McL6bzBpX6Dl1849IqkyltTQtvl9ByGEEMZikoh//NFSZ5hjJbkPoLl6bIazbjj9QvvffbhT5bxMSvsCLb927hFJlbGkhrZtXxsjvE4hhBBCuJ9WIv7xR0udYY6V5D6AEDrrhtMvTMkUlXJSJfWZ+mUEj0+rtC/Q8mvnHpFUGUtqaNv8voMQQghjMUnEP/5oqTPMsYZOUai2h90oVDtbqNbSFqr1LjIF2xTtolDtslGoNp6tKVQrwu89CCGE8MjM39Mj2+VKodq15p7ZiaCzZvH0C+dqquTHNrs7QqYZ1s3Y3x64U2WNaviIO1XGkhraNr/vIIQQwlhMEvGPP1qqxxyD+NF9ACEUZDNsln4h//0H2nVN+wItv3buEUmVsaSGtm1fGyO8TiGEEEK4n1Yi/vFHS/WYYxA/ug8gxEIF2QybpV/If/+BVmlfoOXXzj0iqTKW1NC2+X0HIYQQxmKSiH/80VI95hjBj6eoqXLr8D2tGzVVZmuqJKOmSmwmo6bKslFTJZ5RUwVCCCGMz/w9PbJdru1rqkQx98xOa5Fhayf9Qu5UgVZpX6Dl18494k6VsaSGts3vOwghhDAWk0T844+WOsMcK8l9AM3VYzOcdcPpF6Y/7qYK09r+1FSJzaS0L9Dya+cekVQZS2po2/a1McLrFEIIIYT7aSXiH3+01BnmWEnuA2iuHpvhrBtOvzAlU1TKSZXUZ+qXETw+rdK+QMuvnXtEUmUsqaFt8/sOQgghjMUkEf/4o6XOMMdKch9Ac/XYDKfbcE+v9bTQzilPop8/vXvlO3h8Jqn3/jyAaviIpMpYUkPbvj086udP714kMsbrFUIIIYTbaSXiH3+0VI85RvAjhWorXiN6oSJreUHGP59EvvteXtq2UK3I6+N/+2/evZzn199+di82BesX7aJQ7bIdpVDtN+YtQuWbTcdnszR/lW9ERF7aySefP/2TiPB7D0IIITw6k/3xe+y//y7X9oVqe/yt3sPcMzutRYatvjRrp6/+iCzXVOET27hMsvsDLb+G9qr1nSpL51k6PpvU0LZvD9ypAiGEEEahlYh//NFSPeYYxI/uAwixUEE2w2pp1t6SVJn6ZQSPTyu7P9Dya2ivSKqMJTW0bX7fQQghhLGYJOIff7RUjzkG8aP7AEIsVJDNsFqatfcmVazv4PGZZPcHWn4N7RVJlbGkhrZtXxsjvE4hhBBCuJ9WIv7xR0v1mGMQP7oPIMRCBdkMq6VZmztVoJXdH2j5NbRXJFXGkhraNr/vIIQQwlhMEvGPP1qqxxwj+JFCtRWvEb1QkTVb+PIfHz++FKr98+n5eVuY1hbS/PDho/ynf318OfYuMgXbFO2iUO2yHaFQ7dJ5lo7PZnkB79T+Dw+Pr/p5v04hhBBCuJ/5e3pku1wpVLvW3DM7rUWGrb40az89ff3UvHSnSupjs7sjZJph3Yz97YE7Vdaoho+4U2UsqaFt8/sOQgghjMUkEf/4o6V6zDGIH90HEGKhgmyG1dKsvfT1H8v8FxGMwyS7P9Dya2ivSKqMJTW0bfvaGOF1CiGEEML9tBLxjz9aqsccg/jRfQAhFirIZlgtzdpzSZX8eOqXETw+rez+QMuvob0iqTKW1NC2+X0HIYQQxmKSiH/80VI95hjBj9RUqXiN6N+ps1aqqfLj+/ev6jxQU+VcTEZNlWWjpko8o6YKhBBCGJ/5e3pku1ypqbLW3DM7ERQhw7ZFmrX57z/Qyu4PtPwa2ivuVBlLamjb/L6DEEIIYzFJxD/+aKkecwziR/cBhFCQzbBamrX3JlWs7+DxmWT3B1p+De0VSZWxpIa2bV8bI7xOIYQQQrifViL+8UdL9ZhjED+6DyCEgmyG1dKszZ0q0MruD7T8GtorkipjSQ1tm993EEIIYSwmifjHHy3VY45B/Og+gBAKshlWS7N2SqpMFaa1P8edKrGZZPcHWn4N7RVJlbGkhrZtXxsjvE4hhBBCuJ9WIv7xR0v1mGMEP1KotuI1ohcqsjZVqFZE5JdfyoVqP3x4Lt5oC9WKULQxCq1RqHbZKFQbz9YUqvV+nUIIIYTwftr39ch2uVKodq25Z3ZaiwxbfWnWXvr6j2We3YVxmGT3B1p+De0Vd6qMJTW07alPtSCEEEJ4TFqJ+McfLXWGOVaS+wCaq8dmONuG06w9l1TJj6d+GcHj08ruD7T8GtorkipjSQ1t+/bwqJ8/vXvRCK9XCCGEEO5nkoh//NFSZ5hjJbkPoLl6bIazbTjN2vz3H2jX1e4PtPwa2qveSRX5mi9QEf1y3vLx2ZTmnx7IfZKSKr1flxBCCCGsRysR/5iypc4wx0pyH0AInW3Dadbmv/9AK7s/0PJraK/6J1Xmz3v2dVdD2749cKcKhBBCGIlJIv7xR0udYY41dIpCtT3sRqFa+e7758KMpUK16dgWqvUuMgXbFO2iUO2yHbFQ7dJ5KVS7XKhWhN97EEII4ZGZv6dHtsuVQrVrzT2zE0Fny+Jp1uZOFWhl9wdafg3tFXeqjCU1tG1+30EIIYSxmCTiH3+0VI85BvGj+wBCKMhmWC3N2impMlWY1v4cNVViM8nuD7T8GtorkipjSQ1t2742RnidQgghhHA/rUT844+W6jHHIH50H0CIhQqyGVZLs7ZNppSSKqnP1C8jeHxa2f2Bll9De0VSZSypoW3z+w5CCCGMxSQR//ijpXrMMYIfT1FT5dbhe1o3aqrM1lSxtDVVknl/NxLW/Y4pNVWWjZoq8YyaKhBCCGF85u/pke1ybV9TJYq5Z3ZaiwxbfWnWnqupkh/b7O7t4VGnbCojnMw+PmdL/dLj+XXmHofLGfvbA3eqbH0N7RV3qowlNbTt/BMtCCGEEB6bSSL+8UdLnWGOleQ+gObqsRnOtuE0a+8tVCsyncCYSqzMJVxK55l7vHSducfhujcYuz/Q8mtor0iqjCU1tG372hjhdQohhBDC/bQS8Y8/WuoMc6wk9wE0V4/NcLYNp1n7nv/+U0qg2OPUb2uCZOmOk3vuVCHxUn6DsfsDLb+G9oqkylhSQ9vOgy8IIYQQHptJIv7xR0udYY6V5D6A5uqxGc624TRr33unij2+PbxNWNjjLYmQpcTH2jtVlsxef+mOmshMsvsDLb+G9oqkylhSQ9u2r40RXqcQQggh3E8rEf/4o6V6zDGCHylUW/Ea0QsVWdtaqDbZVKHaf/n5n9+c/z88/p+vikL94x//kB9//FEu138v//LzP795vvS4/bmpYlP/+Mc/inPcer00j7nrRearNaVQ7aJRqDaerSlU6/06hRBCCOH9tO/rke1ybV+otsff6j3MPbPTWmTY6kuzdrpTZaowrf25PTVVSpZnjlvdqbL2zpg1XxmKziS7P9Dya2ivuFNlLKmhbU99qgUhhBDCY9JKxD/+aKkecwziR/cBhFioIJthtTRr22RKKamS+uS/jJYSJPckUJYSHWsSJlu+IjTCL3ovvlrTAb+s13cAACAASURBVPbo6KrhI5IqY0kNbTsPviCEEEJ4bCaJ+McfLdVjjkH86D6AEAsVZDOslmbtpZoqlvkvIpvASFq6U2RLAmUuscKdKm3eYOz+QMuvob0iqTKW1NC27WtjhNcphBBCCPfTSsQ//mipHnMM4kf3AYRYqCCbYbU0a88lVfLj/JfR3Fd7tiRE5u4U2Xr+qYRJMns9ez7uVCGpsvc1tFckVcaSGtp2HnxBCCGE8NhMEvGPP1qqxxwj+JFCtRWvEb1QkbV7CtX+23/z7uX4r3/7yxDFpmDdol0Uql02CtXGs7lCtT/98LVYLb/3IIQQwuPS2h+/x/7773KlUO1ac8/stBYZtvrSrL3lXyp//vTuRTbTi+JIG+y5aKrhI+87VeTrTRkqol+uo6dVmn96IPeJ/b0nMsYnbRBCCCHcziQR/5iypXrMMYgf3QcQYqGCbIbV0qxNUgXZNxetvN8iqoaP/JMqPtcZVWpo27eHx1e/90TGCAghhBBCuJ1WIv7xR0v1mGMQP7oPIMRCBdkMq6VZe0tSJfkLxdPU/kDLr6G9IqkyltTQtvPXCIQQQgiPzSQR//ijpXrMMYIfqalS8RrRv1NnrVRT5c+n5+fnaqqsqQGBHdvOXltjjUWoqeJ1nVFtrqaKNe/vgkMIIYRwP/P39Mh2uVJTZa25Z3YiKEKGbYs0a9v/8lO6UyX/T0AornSAMYyuGj7iTpWxpIa2nX+iBSGEEMJjM0nEP/5oqR5zDOJH9wGEUJDNsFqatZe+/jOVcEFxpc7XP4Jq+IikylhSQ9u2wdcIgSCEEEII99NKxD/+aKkecwziR/cBhFCQzbBamrXnkipzNVZQTKnz9Y+gGj4iqTKW1NC28+ALQgghhMdmkoh//NFSPeYYxI/uAwihIJthtTRrby1Ui2JLna9/BNXwEUmVsaSGtm2DrxECQQghhBDup5WIf/zRUj3mGMGPFKqteI3ohYqslQrV/vj+/avimRSqPaedvWDpGqNQbTxbU6jWu7gehBBCCO+nfV+PbJcrhWrXmntmp7XIsNWXZm3uVEFW6nz9I6iGj7hTZSypoW1PfaoFIYQQwmPSSsQ//mipM8yxktwH0Fw9NsPZNpxmbZIqyEqdr38E1fARSZWxpIa2nQdfEEIIITw2k0T844+WOsMcK8l9AM3VYzOcbcNp1k5JlaXCtCRVziEdYAyjq4aPSKqMJTW0bRt8jRAIQgghhHA/rUT844+WOsMcK8l9ACF0tg2nWdsmU0pJlTzhguJKBxjD6KrhI5IqY0kNbTsPviCEEEJ4bCaJ+McfLXWGOdbQKQrV9rAbhWpnC9XmxGLb2QuWrjEK1cazNYVqRShWCyGEEB6Z+Xt6ZLtcKVS71twzOxF0tiyeZu25mipzXwdCMaXO1z+CaviIO1XGkhradv6JFoQQQgiPzSQR//ijpXrMMYgf3QcQQkE2w2pp1qZQLbJS5+sfQTV8RFJlLKmhbd8eHvXzp3cvEhkjIIQQQgjhdlqJ+McfLdVjjkH86D6AEAsVZDOslmZtkirISp2vfwTV8NGYSRU9rdL80wP2MRF9SaqMEBBCCCGEcD+TRPxjypbqMccIfjxFTZVbh+9p3aipMltTJRk1Vc5hZ6+tscYi1lQ5u83VVPnph691Vf76t78M8Z1wCCGEEG6ntT9+j/333+XavqZKFHPP7LQWGbb60qzNnSrISp2vfwTV8NFod6qcXWpo2/knWhBCCCE8NpNE/OOPljrDHCvJfQDN1WMznG3DadZOSZWlwrQkVc4hHWAMo6uGj0iqjCU1tG0bfI0QCEIIIYRwP61E/OOPljrDHCvJfQDN1WMznG3Dada2yZRSUiVPuKC40gHGMLpq+IikylhSQ9vOgy8IIYQQHptJIv7xR0udYY6V5D6A5uqxGc624TRrL339ZyrhguJKna9/BNXwEUmVsaSGtm2DrxECQQghhBDup5WIf/zRUj3mGMGPFKqteI3ohYqsbSlUKyLFwrVYTKMw6rJRqDaezRWqTeZdXA9CCCGE99O+r0e2y7V9odoef6v3MPfMTmuRYasvzdoUqkVW6nz9I6iGj7hTZSypoW1PfaoFIYQQwmPSSsQ//mipHnMM4kf3AYRYqCCbYbU0a5NUQVbqfP0jqIaPSKqMJTW07Tz4ghBCCOGxmSTiH3+0VI85BvGj+wBCLFSQzbBamrVJqiArdb7+EVTDRyRVxpIa2rYNvkYIBCGEEEK4n1Yi/vFHS/WYYxA/ug8gxEIF2QyrpVmbpAqyUufrH0E1fERSZSypoW3nwReEEEIIj80kEf/4o6V6zDGCHylUW/Ea0QsVWSsVqv3z6fn5UmFaCtWewyiMumwUqo1nawrVilCsFkIIITwy8/f0yHa5Uqh2rblndlqLDFt9adZ+epr+t8l5mztVziEdYAyjq4aPuFNlLKmhbeefaEEIIYTw2EwS8Y8/WqrHHIP40X0AIRYqyGZYLc3aS1//mUq4oLhS5+sfQTV8RFJlLKmhbdvga4RAEEIIIYT7aSXiH3+0VI85BvGj+wBCLFSQzbBamrXnkipzNVZQTKnz9Y+gGj4iqTKW1NC28+ALQgghhMdmkoh//NFSPeYYxI/uAwixUEE2w2pp1qZQLbJS5+sfQTV8RFJlLKmhbdvga4RAEEIIIYT7aSXiH3+0VI85RvDjKQrV9rAbhWrlu++fCzPa4pkUqj2nURh12ShUG8/mCtX+9MPXYrW//vaze5E9CCGEEO5nsj9+j/333+VKodq15p7ZiaAIGbYt0qzNnSrISp2vfwTV8BF3qowlNXxu6wtFVD9/eqefP71TkTE+aYMQQgjhdlqJ+McfLdVjjkH86D6AEAqyGVZLszZJFWSlztc/gmr4iKTKWNKJtsrz+0NKqHz+9G6IgBBCCCGE+5kk4h9/tFSPOQbxo/sAQijIZlgtzdopqbJUmJakyjmkA4xhdNXwEUmVsaTyOpmSaIOvEQJBCCGEEO6nlYh//NFSPeYYwY+nqKly6/A9rRs1VURE5JdfyjVVPnz4+NIHi23U8Fg2aqrENFtXxdZUSeb9HXAIIYQQ3k/7vh7ZLldqqqw198xOa5Fhqy/N2ktf/8mJYkudr38E1fARd6qMJ53g1KdaEEIIITwmrUT8Y4+WOsMcK8l9AM3VYzOcbcNp1p5Lqsx9HQjFlDpf/wiq4SOSKuNJJ5gHXxBCCCE8NpNE/GOPljrDHCvJfQDN1WMznG3DadamUC2yUufrH0E1fERSZTzpBG3wNUIgCCGEEML9tBLxjz1a6gxzrCT3AYTQ2TacZm2SKshKna9/BNXwEUmV8aQTzIMvCCGEEB6bSSL+sUdLnWGONXSKQrU97EahWvnue5Ef35cL1U4dYzGNwqjLRqHamLZUqFaEYrUQQgjhkZm/p0e2y5VCtWvNPbMTQWfL4mnW5k4VZKXO1z+CaviIO1XGk04w/0QLQgghhMdmkoh/7NFSPeYYxI/uAwihIJthtTRrp6TKUmFakirnkA4whtFVw0ckVcaTTtAGXyMEghBCCCHcTysR/9ijpXrMMYgf3QcQYqGCbIbV0qz9NZmiL5xq22MUVyqsc00fPfd9K5Iq40knmAdfEEIIITw2k0T8Y4+W6jHHIH50H0CIhQqyGVZLs+Olr//kRLGlztc/grb4qNSXpMp40gna4GuEQBBCCCGE+2kl4h97tNQZ5lhDpyhUe+tQ/OZ24kK1Is8FM0uFakWkWLgWi2kURl22LT4q9aVQ7Xi2VKjWu7gehBBCCO+nfV+PbJdr+0K1Ucw9s9NaPTJsZ8viaXZMoVpkpc7XP4K2+KjUlztVxpNOcOpTLQghhBAek1Yi/rFHS51hjpXkPoDm6rEZzrbhNDsmqYKs1Pn6R9AWH5X6klQZTzrBPPiCEEII4bGZJOIfe7TUGeZYSe4DaK4em+FsG06zY5IqyEqdr38EbfFRqS9JlfGkE7w9POrnT+9eJDJGQAghhBDC7bQS8Y89WqrHHCP4kZoqFa8R/Tt11rbUVLE1H6ipcg6jhseyUVMlpk3VVPnmy9vs50//JCIiv/72s/t3wSGEEEK4n8n++D3233+Xa/uaKj3+Vu9h7pmd1iLDVl+aHac7Vb7+2+Svj+f9vMeO2ksHGMPo2uKjUl/uVBlPmlHk+f2BO1UghBDCGLQS8Y89WqrHHIP40X0AIRYqyGZYLc2ObTKllFTJEy4ornSAMYyuLT4q9SWpMp40o4i8Cb4ghBBCeGwmifjHHi3VY45B/Og+gBALFWQzrJZmx0s1VaYSLiiu1Pn6R9AWH5X6klQZT5pR5HXwNUIgCCGEEML9tBLxjz1aqsccg/jRfQAhFirIZlgtzY7nkipzXwdCMaXO1z+Ctvio1JekynjSjCLyJviCEEII4bGZJOIfe7RUjzlG8COFaiteI3qhImsUqsXmjMKoy0ah2piWF6oVkVcF7UTEvbgehBBCCPczf0+PbJcrhWrXmntmp7XIsNWXZsf8S2Vkpc7XP4K2+KjUlztVxpNmFHn7iRaEEEIIj80kEf/Yo6V6zDGIH90HEGKhgmyG1dLsmKQKslLn6x9BW3xU6ktSZTxpRpHXwdcIgSCEEEII99NKxD/2aKkecwziR/cBhFioIJthtTQ7JqmCrNT5+kfQFh+V+pJUGU+aUUTeBF8QQgghPDaTRPxjj5bqMccgfnQfQIiFCrIZVkuz45RUWSpMS1LlHNIBxjC6tvio1JekynjSjCKvg68RAkEIIYQQ7qeViH/s0VI95hjBj6coVNvDbhSqFRGRX34pF6q1fbDYRmHUZaNQbUxbKlTrXVwPQgghhPfTvq9HtsuVQrVrzT2zE0ERMmxbpNnx0td/cqLYUufrH0FbfFTqy50q40kzikx/qgUhhBDCY9JKxD/2aKkecwziR/cBhFCQzbBamh3PJVXmvg6EYkqdr38EbfFRqS9JlfGkGUXkTfAFIYQQwmMzScQ/9mipHnMM4kf3AYRQkM2wWpodU6gWWanz9Y+gLT4q9SWpMp40o8jr4GuEQBBCCCGE+2kl4h97tFSPOUbw4ylqqtw6fE/rRk0V+e57kR/fl2uqTB1jMY0aHstGTZWYRk0VCCGEMD7t+3pku1ypqbLW3DM7rUWGrb40O+ZOFWSlztc/grb4qNSXO1XGk2YUmf5UC0IIIYTHpJWIf+zRUmeYYyW5D6C5emyGs204zY5JqiArdb7+EbTFR6W+JFXGk2YUeX5/+Pzp3YtGCAghhBBCuJ9JIv6xR0udYY6V5D6A5uqxGc624TQ7TkmVpcK0JFXOIR1gDKNri49KfUmqjCfNKPL8/mCTKukxCCGEEB6PViL+sUdLnWGOleQ+gBA624bT7NgmU0pJlTzhguJKBxjD6Nrio1JfkirjSTOKPL8/cKcKhBBCGIdJIv6xR0udYY41dIpCtT3sRqHa2UK1ObHYRmHUZaNQbUxbKlQrQrFaCCGE8MjM39Mj2+VKodq15p7ZiaCzZfE0O56rqTL3dSAUU+p8/SNoi49KfblTZTxpRpG3n2hBCCGE8NhMEvGPPVqqxxyD+NF9ACEUZDOslmbHFKpFVup8/SNoi49KfUmqjCfNKPI6+BohEIQQQgjhflqJ+MceLdVjjkH86D6AEAsVZDOslmbHJFWQlTpf/wja4qNSX5Iq40kzisib4AtCCCGEx2aSiH/s0VI95hjEj+4DCLFQQTbDaml2TFIFWanz9Y+gLT4q9SWpMp40o8jr4GuEQBBCCCGE+2kl4h97tNQZ5lhDpyhUe+tQ/OZGodrZQrW2H4Vq4xuFUZeNQrUxbalQrXdxPQghhBDeT/u+Htku1/aFaqOYe2antXpk2M6WxdPsON2pslSYljtVziEdYAyja4uPSn25U2U8aUaR6U+1IIQQQnhMWon4xx4tdYY5VpL7AJqrx2Y424bT7NgmU0pJlTzhguJKBxjD6Nrio1JfkirjSTOKyJvgC0IIIYTHZpKIf+zRUmeYYyW5D6C5emyGs204zY6XaqpMJVxQXKnz9Y+gLT4q9SWpMp40o8jr4GuEQBBCCCGE+2kl4h97tFSPOUbwIzVVKl4j+nfqrG2pqSIixRorWEyjhseyUVMlplFTBUIIIYxP+74e2S7X9jVVevyt3sPcMzutRYatvjQ75r//ICt1vv4RtMVHpb7cqTKeNKPI9KdaEEIIITwmrUT8Y4+W6jHHIH50H0CIhQqyGVZLs2OSKshKna9/BG3xUakvSZXxpBlF5E3wBSGEEMJjM0nEP/ZoqR5zDOJH9wGEWKggm2G1NDsmqYKs1Pn6R9AWH5X6klQZT5pR5HXwNUIgCCGEEML9tBLxjz1aqsccg/jRfQAhFirIZlgtzY5JqiArdb7+EbTFR6W+JFXGk2YUeX5/+Pzp3YtGCAghhBBCuJ9JIv6xR0v1mGMEP1KotuI1ohcqslYqVPvn0/NxqTAthWrPYRRGXTYK1ca0UqHan354fOnz17/9ZYgiexBCCCHcTmt//B7777/LlUK1a809s9NaZNjqS7Pjp6fpf5uct7lT5RzSAcYwurb4qNSXO1XGk2YUeX5/4E4VCCGEMA6TRPxjj5bqMccgfnQfQIiFCrIZVkuz46Wv/0wlXFBcqfP1j6AtPir1JakynjSjyOvga4RAEEIIIYT7aSXiH3u0VI85BvGj+wBCLFSQzbBamh3PJVXmaqygmFLn6x9BW3xU6ktSZTxpRhF5E3xBCCGE8NhMEvGPPVqqxxyD+NF9ACEWKshmWC3NjilUi6zU+fpH0BYflfqSVBlPmlHkdfA1QiAIIYQQwv20EvGPPVqqxxwj+PEUhWp72I1CtfLd9yI/vn//qngmhWrPaRRGXTYK1ca0UqHaZN7F9SCEEEJ4P+37emS7XClUu9bcMzsRFCHDtkWaHXOnCrJS5+sfQVt8VOrLnSrjSTOKTH+qBSGEEMJj0krEP/ZoqR5zDOJH9wGEUJDNsFqaHZNUQVbqfP0jaIuPSn1JqownzSgib4IvCCGEEB6bSSL+sUdL9ZhjED+6DyCEgmyG1dLsOCVVlgrTklQ5h3SAMYyuLT4q9SWpMp40o8jr4GuEQBBCCCGE+2kl4h97tFSPOUbw4ylqqtw6fE/rRk0VERH55ZdyTRXbB4tt1PBYNmqqxDRqqkAIIYTxad/XI9vlSk2Vteae2WktMmz1pdnx0td/cqLYUufrH0FbfFTqy50q40kzikx/qgUhhBDCY9JKxD/2aKkzzLGS3AfQXD02w9k2nGbHc0mVua8DoZhS5+sfQVt8VOpLUmU8aUYReRN8QQghhPDYTBLxjz1a6gxzrCT3ATRXj81wtg2n2TGFapGVOl//CNrio1JfkirjSTOKvA6+RggEIYQQQrifViL+sUdLnWGOleQ+gPZ6KqjiNc624TQ7JqmCrNT5+kfQFh+V+pJUGU+aUUTeBF8QQgghPDaTRPxjj5Y6wxxr6BSFauVJRL5f8dgddqNQrXz3vciP78uFaqeOsZhGYdRlo1BtTFsqVCtCsVoIIYTwyMzf0yPb5Uqh2rXmntmpodmMYX5nCneq3C3NjrlTBVmp8/WPoC0+KvXlTpXxpBlF3r4/QQghhPDYTBLxjz1aqsccg/jRfQB3L8LnT+9e6c0mfzLM25USLEE2w2ppdpySKkuFaUmqnEM6wBhG1xYflfqSVBlPmlHk7ftUegxCCCGEx6OViH/s0VI95hjEj+4D2O38PJlSSq7cHh71799+21Q9roHqieROW+kAYxhdW3xU6ktSZTxpRpG371cjBIQQQggh3M8kEf/Yo6V6zDGIH90HsFlLyZSp5Mrfv/325ef//u23b78OZM5v+05p6nm7Gfb8/NGe1+wx+/Uf+/Ppjz7LEcZPUqWt8v2B7vNRqS9JlfGkGUWe3x+4UwVCCCGMQSsR/9ijpc4wxxo6bKHa28Oj/PTD42yfX3/7WvDmX37+59ZDwg5kf/75DQVzGxqFUZeNQrUxbalQrXdxPQghhBDeT/u+Htku1/aFaqOYe2bnHt0elmuqTGbYKFR7lzQ7nitUa+U9bjsm73FEVr4/0H0+KvXlTpXxpBlFpj/VghBCCOExaSXiH3u01BnmWEnuA6i24KXNPbkZSKrcJc2OS0mVEUVSpb3U+fpH0BYflfqSVBlPmlHk7fsThBBCCI/NJBH/2KOlzjDHSnIfQHPdHh6r/7efyWsMMNde0uyYpAqyUufrH0FbfFTqS1JlPGlGkdfB1wiBIIQQQgj300rEP/ZoqR5zjODHw9ZU2WK3h8fm3wW7PTyG/06dtbxGw4cPH+W770V+fP9+dZ0HL/vw4aOIyNBjPLpRw2PZqKkS06ipAiGEEManfV+PbJdr+5oqPf5W72HumZ3WIsNWX5odpztVjnAXyBHGeHTpAGMYXVt8VOrLnSrjSTOKTH+qBSGEEMJj0krEP/ZoqR5zDOJH9wGEWKggm2G1NDu2iYrRExYkVdpLBxjD6Nrio1JfkirjSTOKyJvgC0IIIYTHZpKIf+zRUj3mGMSP7gMIsVBBNsNqaXZMTRVkpc7XP4K2+KjUl6TKeNKMIq+DrxECQQghhBDup5WIf+zRUj3mGMSP7gMIsVBBNsNqaXZMUgVZqfP1j6AtPir1JakynjSjiLwJviCEEEJ4bCaJ+MceLdVjjhH8SKHaiteIXqjIGoVqsTmjMOqyUag2pi0VqhWhWC2EEEJ4ZObv6ZHtcqVQ7Vpzz+y0Fhm2+tLsmDtVkJU6X/8I2uKjUl/uVBlPmlHk7SdaEEIIITw2k0T8Y4+W6jHHIH50H0CIhQqyGVZLs2OSKshKna9/BG3xUakvSZXxpBlFXgdfIwSCEEIIIdxPKxH/2KOleswxiB/dBxBioYJshtXS7JikCrJS5+sfQVt8VOpLUmU8aUYReRN8QQghhPDYTBLxjz1aqsccg/jRfQAhFirIZlgtzY5TUuUICYsjjPHo0gHGMLq2+KjUl6TKeNKMIq+DrxECQQghhBDup5WIf+zRUj3mGMGPpyhU28NuFKoVkefirxSqxSiMumwUqo1ppUK1P/3w+NLn199+di+yByGEEML9TPbH77H//rtcKVS71twzOxEUIcO2RZod8/UfZKXO1z+Ctvio1Jc7VcaTZhR5fn/4/Ondi9JjEEIIITwerUT8Y4+W6jHHIH50H0AIBdkMq6XZMUkVZKXO1z+Ctvio1JekynjSjCLP7w82qTJCQAghhBDC/UwS8Y89WqrHHIP40X0AIRRkM6yWZsckVZCVOl//CNrio1JfkirjSTOKvA6+RggEIYQQQrifViL+sUdL9ZhjBD+eoqbKrcP3tG7UVJHvvhf58T01VTBqeKwxaqrEtFJNlWTe3wGHEEII4f207+uR7XKlpspac8/stBYZtvrS7Jg7VZCVOl//CNrio1Jf7lQZT5pRZPpTLQghhBAek1Yi/rFHS51hjpXkPoDm6rEZzrbhNDsmqYKs1Pn6R9AWH5X6klQZT5pRRN4EXxBCCCE8NpNE/GOPljrDHCvJfQDN1WMznG3DaXackipHSFgcYYxHlw4whtG1xUelviRVxpNmFHkdfI0QCEIIIYRwP61E/GOPljrDHCvJfQAhdLYNp9mxTVSMnrAgqdJeOsAYRtcWH5X6klQZT5pRRN4EXxBCCCE8NpNE/GOPljrDHGvoFIVqe9iNQrUUqsVejMKoy0ah2pi2VKhWhGK1EEII4ZGZv6dHtsuVQrVrzT2zE0Fny+JpdkxNFWSlztc/grb4qNSXO1XGk2YUefuJFoQQQgiPzSQR/9ijpXrMMYgf3QcQQkE2w2ppdkxSBVmp8/WPoC0+KvUlqTKeNKPI6+BrhEAQQgghhPtpJeIfe7RUjzkG8aP7AEIsVJDNsFqaHZNUQVbqfP0jaIuPSn1JqownzSgib4IvCCGEEB6bSSL+sUdL9ZhjED+6DyDEQgXZDKul2TFJFWSlztc/grb4qNSXpMp40owir4OvEQJBCCGEEO6nlYh/7NFSZ5hjDZ2iUO2tQ/GbG4VqKVSLvRiFUZeNQrUxbalQrXdxPQghhBDeT/u+Htku1/aFaqOYe2antXpk2M6WxdPsON2pcoS7QI4wxqNLBxjD6Nrio1Jf7lQZT5pRZPpTLQghhBAek1Yi/rFHS51hjpXkPoDm6rEZzrbhNDu2iYrRExYkVdpLBxjD6Nrio1JfkirjSTOKPL8/fP707kUjBIQQQggh3M8kEf/Yo6XOMMdKch9Ac/XYDGfbcJodU1MFWanz9Y+gLT4q9SWpMp40o8jz+4NNqqTHIIQQQng8Won4xx4t1WOOEfxITZWK14j+nTpr1FTB5owaHstGTZWYVqqp8tMPjy99fv3tZ/fvgkMIIYRwP5P98Xvsv/8u1/Y1VXr8rd7D3DM7rUWGrb40O+ZOFWSlztc/grb4qNSXO1XGk2YUmf5UC0IIIYTHpJWIf+zRUj3mGMSP7gMIsVBBNsNqaXZMUgVZqfP1j6AtPir1JakynjSjiLwJviCEEEJ4bCaJ+MceLdVjjkH86D6AEAsVZDOslmbHJFWQlTpf/wja4qNSX5Iq40kzirwOvkYIBCGEEEK4n1Yi/rFHS/WYYxA/ug8gxEIF2QyrpdkxSRVkpc7XP4K2+KjUl6TKeNKMIvIm+IIQQgjhsZkk4h97tFSPOUbwI4VqK14jeqEia6VCtX8+PR+PXASWQrXtjcKoy0ah2phWKlRrzbu4HoQQQgj3M39Pj2yXK4Vq15p7Zqe1yLDVl2bH9u6P0e8C4U6V9tIBxjC6tvio1Jc7VcaTZhR5+4kWhBBCCI/NJBH/2KOleswxiB/dBxBioYJshtXS7Jiv/yArdb7+EbTFR6W+JFXGk2YUeR18jRAIQgghhHA/rUT8Y4+W6jHHIH50H0CIhQqyGVZLs2OSKshKna9/BG3xUakvSZXxpBlF5E3wBSGEEMJjM0nEP/ZoqR5zDOJH9wGEWKggm2G1ErEdXgAAIABJREFUNDsmqYKs1Pn6R9AWH5X6klQZT5pR5HXwNUIgCCGEEML9tBLxjz1aqsccI/jxFIVqe9iNQrXy3fciP75/v7p4ppdRqLa9URh12ShUG9OWCtV6F9eDEEII4f207+uR7XKlUO1ac8/sRFCEDNsWaXbMnSrISp2vfwRt8VGpL3eqjCfNKDL9qRaEEEIIj0krEf/Yo6V6zDGIH90HEEJBNsNqaXZMUgVZqfP1j6AtPir1JakynjSjiLwJviCEEEJ4bCaJ+MceLdVjjkH86D6AEAqyGVZLs+OUVDlCwuIIYzy6dIAxjK4tPir1JakynjSjyOvga4RAEEIIIYT7aSXiH3u0VI85RvDjKWqq3Dp8T+tGTRURea5TQk0VjBoey0ZNlZhGTRUIIYQwPu37emS7XKmpstbcMzutRYatvjQ75us/yEqdr38EbfFRqS93qownzSjy/P7w+dO7F6XHIIQQQng8Won4xx4tdYY5VpL7AJqrx2Y424bT7JikCrJS5+sfQVt8VOpLUmU8aUaR5/cHm1QZISCEEEII4X4mifjHHi11hjlWkvsAmqvHZjjbhtPsmKQKslLn6x9BW3xU6ktSZTxpRpHn9wfuVIEQQghj0ErEP/ZoqTPMsZLcBxBCZ9twmh2TVEFW6nz9I2iLj0p9SaqMJ80oIm+CLwghhBAem0ki/rFHS51hjjV0ikK1PexGoVr57nuRH99TqBajMOoao1BtTFsqVCtCsVoIIYTwyMzf0yPb5Uqh2rXmntmJoLNl8TQ75k4VZKXO1z+Ctvio1Jc7VcaTZhR5+4kWhBBCCI/NJBH/2KOleswxiB/dBxBCQTbDaml2nJIqR0hYHGGMR5cOMIbRtcVHpb4kVcaTZhR5HXyNEAhCCCGEcD+tRPxjj5bqMccgfnQfQIiFCrIZVkuzY5uoGD1hQVKlvXSAMYyuLT4q9SWpMp40o4i8Cb4ghBBCeGwmifjHHi3VY45B/Og+gBALFWQzrJZmx3z9B1mp8/WPoC0+KvUlqTKeNKPI6+BrhEAQQgghhPtpJeIfe7TUGeZYQ6coVHvrUPzmRqFaCtViL0Zh1GWjUG1MWypU611cD0IIIYT3076vR7bLtX2h2ijmntlprR4ZtrNl8TQ75k4VZKXO1z+Ctvio1Jc7VcaTZhSZ/lQLQgghhMeklYh/7NFSZ5hjJbkPoLl6bIazbTjNjkmqICt1vv4RtMVHpb4kVcaTZhSRN8EXhBBCCI/NJBH/2KOlzjDHSnIfQHP12Axn23CaHZNUQVbqfP0jaIuPSn1JqownzSjyOvgaIRCEEEII4X5aifjHHi3VY44R/EhNlYrXiP6dOmvUVMHmjBoey0ZNlZhGTRUIIYQwPu37emS7XNvXVOnxt3oPc8/stBYZtvrS7DjdqXKEu0COMMajSwcYw+ja4qNSX+5UGU+aUWT6Uy0IIYQQHpNWIv6xR0v1mGMQP7oPIMRCBdkMq6XZsU1UjJ6wIKnSXjrAGEbXFh+V+pJUGU/6/7d3BjmSHEe6NgpzAC37vSPMQmxA6wJqFgIf0H0C6QLciwQ54LqBFLq11wXmBmxgBC2eAF0g2cDMFTTLPsGztyh60csrosIzPNzN3OL7gB8fgx3Z4e4RGenlGWVdWESeTb4wxhhjPLdTROznHj0zoo9BxtG8ASFOVJCLoTpabFNTheRR4+PPkFvGaG1fFlX8RQuLPJ18eZgIYowxxni/84jYzz16ZkQfg4yjeQNCnKggF0N1tNhmUYXkUePjz5BbxmhtXxZV/EULizx8Pnz+9OoxHiaEGGOMMd7vFBH7uUfPjOhjhHGkUO2Bx4heqCiHQrXwEhRG3YZCtTFZK1T79VcfHvf5w7//1kWRPYwxxhjf7px//D32z3939xSqrcV8Zad3WGE7Plps86QKyaPGx58ht4zR2r48qeIvWljk4fOBJ1UwxhjjOE4RsZ979MyIPgYZR/MGhDhRQS6G6mixzaIKyaPGx58ht4zR2r4sqviLFhZ5OvnyMBHEGGOM8X7nEbGfe/TMiD4GGUfzBoQ4UUEuhuposc2iCsmjxsefIbeM0dq+LKr4ixYWkWeTL4wxxhjP7RQR+7lHz4zoY5BxNG9AiBMV5GKojhbbaVFlhgWLGdo4e9RBG7znljFa25dFFX/RwiJPJ18eJoIYY4wx3u88IvZzj54Z0ccI43iKQrUjuFCoVkQeir9SqBYojLoNhWpjslaoNmFdXA9jjDHG7c4/1yNzd0+h2lrMV3YiJMIK2y3RYptf/yF51Pj4M+SWMVrblydV/EULiyx/q4UxxhjjOZ1HxH7u0TMj+hhkHM0bECJBLobqaLHNogrJo8bHnyG3jNHaviyq+IsWFpFnky+MMcYYz+0UEfu5R8+M6GOQcTRvQIgEuRiqo8U2iyokjxoff4bcMkZr+7Ko4i9aWOTp5MvDRBBjjDHG+51HxH7u0TMj+hhhHE9RU+Uy4Pe0LtRUkS9fi7x9Q00VoIZHDdRUiQk1VTDGGOP4zj/XI3N3T02VWsxXdnqHFbbjo8U2T6qQPGp8/Blyyxit7cuTKv6ihUWWv9XCGGOM8ZzOI2I/9+iZM/TxoJg3oHtGXAxnu+C02GZRheRR4+PPkFvGaG1fFlX8RQuLyLPJF8YYY4zndoqI/dyjZ87Qx4Ni3oDuGXExnO2C02I7LarMsGAxQxtnjzpog/fcMkZr+7Ko4i9aWOTp5MvDRBBjjDHG+51HxH7u0TNn6ONBMW9AiJztgtNiO1+o8L5gwaJK/6iDNnjPLWO0ti+LKv6ihUXk2eQLY4wxxnM7RcR+7tEzZ+jjETlFodoRXChUS6FaeITCqNtQqDYmW4VqRShWizHGGM/s8jM9Mnf3FKqtxXxlJ0LOtoqnxTY1VUgeNT7+DLlljNb25UkVf9HCIs+/0cIYY4zx3E4RsZ979MyIPgYZR/MGhEiQi6E6WmyzqELyqPHxZ8gtY7S2L4sq/qKFRR4+Hz5/evWY9P8wxhhjPJ/ziNjPPXpmRB+DjKN5A0KcqCAXQ3W02GZRheRR4+PPkFvGaG1fFlX8RQuLPHw+5IsqHiaEGGOMMd7vFBH7uUfPjOhjkHE0b0CIExXkYqiOFtssqpA8anz8GXLLGK3ty6KKv2hhkYfPB55UwRhjjGM4j4j93KNnztDHI3KKQrWXAcVvLhSqpVAtPEJh1G0oVBuTrUK11sX1MMYYY9zu/HM9Mnf3/QvVRsF8Zad3RqywnW0VT4vt9KTKDE+BzNDG2aMO2uA9t4zR2r48qeIvWlhk+VstjDHGGM/pPCL2c4+eOUMfD4p5A7pnxMVwtgtOi+18ocL7ggWLKv2jDtrgPbeM0dq+LKr4ixYWkWeTL4wxxhjP7RQR+7lHz5yhjwfFvAHdM+JiONsFp8U2NVVIHjU+/gy5ZYzW9mVRxV+0sMjTyZeHiSDGGGOM9zuPiP3co2dG9DHIOJo3IMSJCnIxVEeLbRZVSB41Pv4MuWWM1vZlUcVftLCIPJt8YYwxxnhup4jYzz16ZkQfI4wjhWoPPEb0QkU5FKqFl6Aw6jYUqo3JVqFaEYrVYowxxjO7/EyPzN19/0K1I35WH4H5yk7vsMJ2fLTY5kkVkkeNjz9DbhmjtX15UsVftLDI82+0MMYYYzy3U0Ts5x49M6KPQcbRvAEhTlSQi6E6WmyzqELyqPHxZ8gtY7S2L4sq/qKFRZ5OvjxMBDHGGGO833lE7OcePTOij0HG0bwBIU5UkIuhOlpss6hC8qjx8WfILWO0ti+LKv6ihUXk2eQLY4wxxnM7RcR+7tEzI/oYYRypqXLgMaL/Tl3OWk2Vn64P257rlVBTpT/U8NiGmioxoaYKxhhjHNvlZ3pk7u6pqVKL+cpO77DCdny02M6f/vD+FAhPqvSPOmiD99wyRmv78qSKv2hhkeffaGGMMcZ4bqeI2M89emZEH4OMo3kDQpyoIBdDdbTY5td/SB41Pv4MuWWM1vZlUcVftLDI08mXh4kgxhhjjPc7j4j93KNnRvQxyDiaNyDEiQpyMVRHi20WVUgeNT7+DLlljNb2ZVHFX7SwiDybfGGMMcZ4bqeI2M89emZEH4OMo3kDQpyoIBdDdbTYZlGF5FHj48+QW8ZobV8WVfxFC4s8nXx5mAhijDHGeL/ziNjPPXpmRB8jjOMpCtWO4EKhWvnytcjbN2+qi2daQaHa/lAYdRsK1cZkq1CtdXE9jDHGGLc7/1yPzN09hWprMV/ZiZAIK2y3RIttnlQhedT4+DPkljFa25cnVfxFC4ssf6uFMcYY4zmdR8R+7tEzI/oYZBzNGxAiQS6G6mixzaIKyaPGx58ht4zR2r4sqviLFhaRZ5MvjDHGGM/tFBH7uUfPjOhjkHE0b0CIBLkYqqPFdlpUmWHBYoY2zh510AbvuWWM1vZlUcVftLDI08mXh4kgxhhjjPc7j4j93KNnRvQxyDiaNyDEiQpyMVRHi+18ocL7ggWLKv2jDtrgPbeM0dq+LKr4ixYWkWeTL4wxxhjP7RQR+7lHz4zoY4RxPEWh2suA4jcXCtVSqBYeoTDqNhSqjclWoVoRitVijDHGM7v8TI/M3X3/QrVRMF/Z6R1W2I6PFtvUVCF51Pj4M+SWMVrblydV/EULizz/RgtjjDHGcztFxH7u0TNn6ONBMW9A94y4GM52wWmxzaIKyaPGx58ht4zR2r4sqviLFhZ5OvnyMBHEGGOM8X7nEbGfe/TMGfp4UMwbECJnu+C02GZRheRR4+PPkFvGaG1fFlX8RQuLyLPJF8YYY4zndoqI/dyjZ87QxyNyipoqI7hQU4WaKvAINTy2oaZKTKipgjHGGMd2+Zkembv7/jVVLgPqn47AfGUnQs62iqfFNk+qkDxqfPwZcssYre3Lkyr+ooVFnn+jhTHGGOO5nSJiP/fomRF9DDKO5g0IkSAXQ3W02E6LKjMsWMzQxtmjDtrgPbeM0dq+LKr4ixYWeTr58jARxBhjjPF+5xGxn3v0zIg+BhlH8waEOFFBLobqaLGdL1R4X7BgUaV/1EEbvOeWMVrbl0UVf9HCIvJs8oUxxhjjuZ0iYj/36JkRfQwyjuYNCHGiglwM1dFim1//IXnU+Pgz5JYxWtuXRRV/0cIiTydfHiaCGGOMMd7vPCL2c4+eOUMfj8gpCtVeBhS/uVColkK18AiFUbehUG1MtgrVWhfXwxhjjHG788/1yNzd9y9UGwXzlZ3eGbHCdrZVPC22eVKF5FHj48+QW8ZobV+eVPEXLSyy/K0WxhhjjOd0HhH7uUfPnKGPB8W8Ad0z4mI42wWnxTaLKiSPGh9/htwyRmv7sqjiL1pY5OHz4fOnV4/xMCHEGGOM8X6niNjPPXrmDH08KOYN6J4RF8PZLjgttllUIXnU+PgzZHuM9DFabKc8XMfP/3+ZtdeT45PGemnM06KKiI8JIcYYY4xvdx4R+zllz4zoY5BxNG9AiBMV5GKojhbbLKqQPGp8/BmyNUZasS9PqviLFhZ5+HzgSRWMMcY4jlNE7OcePTOijxHGkUK1Bx4jeqGinLVCtT9dH7Y9F4GlUG1/KIy6zdYY5X9Oodp52CpUK0KxWowxxnhml5/pkbm771+odsTP6iMwX9npHVbYjo8W2/nTH96fAuFJlf5RB23wnq0x0op9eVLFX7SwyPNvtDDGGGM8t1NE7OcePTOij0HG0bwBIU5UkIuhOlps8+s/JI8aH3+GbI2RVuzLooq/aGGRp5MvDxNBjDHGGO93HhH7uUfPjOhjkHE0b0CIExXkYqiOFtssqpA8anz8GbI1RlqxL4sq/qKFReTZ5AtjjDHGcztFxH7u0TMj+hhhHKmpcuAxov9OXc5aTZW3b95U13mwgpoq/aGGxzbUVIkJNVUwxhjj2C4/0yNzd09NlVrMV3Z6hxW246PFNk+qkDxqfPwZsjVGWrEvT6r4ixYWef6NFsYYY4zndoqI/dyjZ0b0Mcg4mjcgxIkKcjFUR4ttFlVIHjU+/gzZGiOt2JdFFX/RwiJPJ18eJoIYY4wx3u88IvZzj54Z0ccg42jegBAnKsjFUB0ttllUIXnU+PgzZGuMtGJfFlX8RQuLyLPJF8YYY4zndoqI/dyjZ0b0Mcg4mjcgxIkKcjFUR4vttKgyw4LFDG2cPeqgDd6zNUZasS+LKv6ihUWeTr48TAQxxhhjvN95ROznHj0zoo8RxvEUhWpHcKFQrYg8FH+lUC1QGHUbCtXGZKtQrXVxPYwxxhi3O/9cj8zdPYVqazFf2YmQCCtst0SLbX79h+RR4+PPkK0x0op9eVLFX7SwyPK3WhhjjDGe03lE7OcePTOij0HG0bwBIRLkYqiOFtssqpA8anz8GbI1RlqxL4sq/qKFReTZ5AtjjDHGcztFxH7u0TMj+hhkHM0bECJBLobqaLHNogrJo8bHnyFbY6QV+7Ko4i9aWOTp5MvDRBBjjDHG+51HxH7u0TMj+hhkHM0bEOJEBbkYqqPFNosqJI8aH3+GbI2RVuzLooq/aGEReTb5whhjjPHcThGxn3v0zIg+RhjHUxSqvQwofnOhUK18+Vrk7RsK1QKFUWugUG1M1grVfv3Vh8d9/vDvv3VRZA9jjDHGtzvnH3+P/fPf3X3/QrVRMF/Z6R1W2I6PFts8qULyqPHxZ8jWGGnFvjyp4i/6xPoknz+90s+fXrn4hg1jjDHG+50iYj/36Jkz9PGgmDege0ZcDGe74LTYTosqMyxYzNDG2aMO2uA9W2OkFfuyqOIvS2N9ef/hcUHl86dXj/8PY4wxxvM5j4j93KNnztDHg2LegBA52wWnxXa+UOF9wYJFlf5RB23wnq0x0op9WVTxl6WxLidfGGOMMZ7bKSL2c4+eOUMfj8gpaqqM4EJNFWqqwCPU8NiGmioxWRrrpd+/9vA74RhjjDG+3eVnemTu7vvXVLkMqH86AvOVnQg52yqeFtvUVCF51Pj4M2RrjLRiX55U8ZelsS6/0cIYY4zx3E4RsZ979MyIPgYZR/MGhEiQi6E6WmyzqELyqPHxZ8jWGGnFviyq+MvSWOeTLw8TQYwxxhjvdx4R+7lHz4zoY5BxNG9AiBMV5GKojhbbLKqQPGp8/BmyNUZasS+LKv6yNNbl5AtjjDHGcztFxH7u0TMj+hhkHM0bEOJEBbkYqqPFNosqJI8aH3+GbI2RVuzLooq/LI11PvnyMBHEGGOM8X7nEbGfe/TMGfp4RE5RqPYyoPjNhUK1FKqFRyiMug2FamOyVajWurgexhhjjNudf65H5u6+f6HaKJiv7PTOiBW2s63iabGdnlSZ4SmQGdo4e9RBG7xna4y0Yl+eVPGXpbFe+lYLY4wxxnM6j4j93KNnztDHg2LegO4ZcTGc7YLTYjtfqPC+YMGiSv+ogzZ4z9YYacW+LKr4y9JYl5MvjDHGGM/tFBH7uUfPnKGPB8W8Ad0z4mI42wWnxTY1VUgeNT7+DNkaI63Yl0UVf1ka63zy5WEiiDHGGOP9ziNiP/fomRF9DDKO5g0IcaKCXAzV0WKbRRWSR42PP0O2xkgr9mVRxV+WxrqcfGGMMcZ4bqeI2M89emZEHyOMI4VqDzxG9EJFORSqhZegMOo2FKqNyVahWhGK1WKMMcYzu/xMj8zdff9CtSN+Vh+B+cpO77DCdny02OZJFZJHjY8/Q7bGSCv25UkVf1ka6/IbLYwxxhjP7RQR+7lHz4zoY5BxNG9AiBMV5GKojhbbLKqQPGp8/BmyNUZasS+LKv6yNNb55MvDRBBjjDHG+51HxH7u0TMj+hhkHM0bEOJEBbkYqqPFNosqJI8aH3+GbI2RVuzLooq/LI11OfnCGGOM8dxOEbGfe/TMiD5GGEdqqhx4jOi/U5ezVlPlp+vDtud6JdRU6Q81PLahpkpMqKmCMcYYx3b5mR6Zu3tqqtRivrLTO6ywHR8ttvOnP7w/BcKTKv2jDtrgPVtjpBX78qSKvyyNdfmNFsYYY4zndoqI/dyjZ0b0Mcg4mjcgxIkKcjFUR4ttfv2H5FHj48+QrTHSin1ZVPGXpbHOJ18eJoIYY4wx3u88IvZzj54Z0ccg42jegBAnKsjFUB0ttllUIXnU+PgzZGuMtGJfFlX8ZWmsy8kXxhhjjOd2ioj93KNnRvQxyDiaNyDEiQpyMVRHi20WVUgeNT7+DNkaI63Yl0UVf1ka63zy5WEiiDHGGOP9ziNiP/fomRF9jDCOpyhUO4ILhWrly9cib9+8qS6eaQWFavtDYdRtKFQbk61CtdbF9TDGGGPc7vxzPTJ39xSqrcV8ZSdCIqyw3RIttnlSheRR4+PPkK0x0op9eVLFX5bGeulbLYwxxhjP6Twi9nOPnhnRxyDjaN6AEAlyMVRHi20WVUgeNT7+DNkaI63Yl0UVf1ka63LyhTHGGOO5nSJiP/fomRF9DDKO5g0IkSAXQ3W02E6LKjMsWMzQxtmjDtrgPVtjpBX7sqjiL0tjnU++PEwEMcYYY7zfeUTs5x49M6KPQcbRvAEhTlSQi6E6WmznCxXeFyxYVOkfddAG79kaI63Yl0UVf1ka63LyhTHGGOO5nSJiP/fomRF9jDCOpyhUexlQ/OZCoVoK1cIjFEbdhkK1MdkqVCtCsVqMMcZ4Zpef6ZG5u+9fqDYK5is7vcMK2/HRYpuaKiSPGh9/hmyNkVbsy5Mq/rI01uU3WhhjjDGe2yki9nOPnjlDHw+KeQO6Z8TFcLYLTottFlVIHjU+/gzZGiOt2JdFFX9ZGut88uVhIogxxhjj/c4jYj/36Jkz9PGgmDcgRM52wWmxzaIKyaPGx58hW2OkFfuyqOIvS2NdTr4wxhhjPLdTROznHj1zhj4ekVPUVBnBhZoq1FSBR6jhsQ01VWJCTRWMMcY4tsvP9Mjc3fevqXIZUP90BOYrOxFytlU8LbZ5UoXkUePjz5CtMdKKfXlSxV+Wxrr8RgtjjDHGcztFxH7u0TMj+hhkHM0bECJBLobqaLGdFlVmWLCYoY2zRx20wXu2xkgr9mVRxV+WxjqffHmYCGKMMcZ4v/OI2M89emZEH4OMo3kDQpyoIBdDdbTYzhcqvC9YsKjSP+qgDd6zNUZasS+LKv6yNNbl5AtjjDHGcztFxH7u0TMj+hhkHM0bEOJEBbkYqqPFNr/+Q/Ko8fFnyNYYacW+LKr4y9JY55MvDxNBjDHGGO93HhH7uUfPnKGPR+QUhWovA4rfXChUS6FaeITCqNtQqDYmW4VqrYvrYYwxxrjd+ed6ZO7u+xeqjYL5yk7vjFhhO9sqnhbbPKlC8qjx8WfI1hhpxb48qeIvS2O99K0WxhhjjOd0HhH7uUfPnKGPB8W8Ad0z4mI42wWnxTaLKiSPGh9/hmyNkVbsy6KKvyyNdTn5whhjjPHcThGxn3v0zBn6eFDMG9A9Iy6Gs11wWmyzqELyqPHxZ8jWGGnFviyq+MvSWOeTLw8TQYwxxhjvdx4R+7lHz4zoY5BxNG9AiBMV5GKojhbbLKqQPGp8/BmyNUZasS+LKv6yNNbl5AtjjDHGcztFxH7u0TMj+hhhHClUe+AxohcqylkrVPvT9WHbcxFYCtX2h8Ko21CoNiZbhWpFKFaLMcYYz+zyMz0yd/f9C9WO+Fl9BOYrO73DCtvx0WI7f/rD+1MgPKnSP+qgDd6zNUZasS9PqvjL0liX32hhjDHGeG6niNjPPXpmRB+DjKN5A0KcqCAXQ3W02ObXf0geNT7+DNkaI63Yl0UVf1ka63zy5WEiiDHGGOP9ziNiP/fomRF9DDKO5g0IcaKCXAzV0WKbRRWSR42PP0O2xkgr9mVRxV+WxrqcfGGMMcZ4bqeI2M89emZEHyOMIzVVDjxG9N+py1mrqfL2zZvqOg9WUFOlP9Tw2IaaKjGhpgrGGGMc2+VnemTu7qmpUov5yk7vsMJ2fLTY5kkVkkeNjz9DtsZIK/blSRV/WRrr8hstjDHGGM/tFBH7uUfPjOhjkHE0b0CIExXkYqiOFtssqpA8anz8GbI1RlqxL4sq/rI01vnky8NEEGOMMcb7nUfEfu7RMyP6GGQczRsQ4kQFuRiqo8U2iyokjxoff4ZsjZFW7Muiir8sjXU5+cIYY4zx3E4RsZ979MyIPgYZR/MGhDhRQS6G6mixnRZVZliwmKGNs0cdtMF7tsZIK/ZlUcVflsY6n3x5mAhijDHGeL/ziNjPPXpmRB8jjOMpCtWO4EKhWhF5KP5KoVqgMOo2FKqNyVahWuviehhjjDFud/65Hpm7ewrV1mK+shMhEVbYbokW2/z6D8mjxsefIVtjpBX78qSKvyyN9dK3WhhjjDGe03lE7OcePTOij0HG0bwBIRLkYqiOFtssqpA8anz8GbI1RlqxL4sq/rI01uXkC2OMMcZzO0XEfu7RMyP6GGQczRsQIkEuhuposc2iCsmjxsefIVtjpBX7sqjiL0tjnU++PEwEMcYYY7zfeUTs5x49M6KPQcbRvAEhTlSQi6E6WmyzqELyqPHxZ8jWGGnFviyq+MvSWJeTL4wxxhjP7RQR+7lHz4zoY4RxPEWh2suA4jcXCtXKl69F3r6hUC1QGLUGCtXGZKtQrQjFajHGGOOZXX6mR+buvn+h2iiYr+z0Ditsx0eLbZ5UIXnU+PgzZGuMtGJfnlTxl6WxLr/RwhhjjPHcThGxn3v0zBn6eFDMG9A9Iy6Gs11wWmynRZUZFixmaOPsUQdt8J6tMdKKfVlU8Zelsc4nXx4mghhjjDHe7zwi9nOPnjlDHw+KeQNC5GwXnBbb+UKF9wULFlX6Rx20wXu2xkgr9mVRxV+WxrqcfGGMMcZ4bqeI2M89euYMfTwip6ipMoILNVWoqQKPUMNjG2qqxISaKhhjjHFsl5/pkbm7719T5TKg/ukIzFd2IuRsq3habFNTheRR4+PPkK0x0op9eVLFX5bGuvxGC2OMMcZzO0XEfu7RMyP6GGQczRsQIkEuhupZugPtAAAeOklEQVRosc2iCsmjxsefIVtjpBX7sqjiL0tjnU++PEwEMcYYY7zfeUTs5x49M6KPQcbRvAEhTlSQi6E6WmyzqELyqPHxZ8jWGGnFviyq+MvSWJeTL4wxxhjP7RQR+7lHz4zoY5BxNG9AiBMV5GKojhbbLKqQPGp8/BmyNUZasS+LKv6yNNb55MvDRBBjjDHG+51HxH7u0TNn6OMROUWh2suA4jcXCtVSqBYeoTDqNhSqjclWoVrr4noYY4wxbnf+uR6Zu/v+hWqjYL6y0zsjVtjOtoqnxXZ6UmWGp0BmaOPsUQdt8J6tMdKKfXlSxV+WxnrpWy2MMcYYz+k8IvZzj545Qx8PinkDumfExXC2C06L7XyhwvuCBYsq/aMO2uA9W2OkFfuyqOIvS2NdTr4wxhhjPLdTROznHj1zhj4eFPMGdM+Ii+FsF5wW29RUIXnU+PgzZGuMtGJfFlX8ZWms88mXh4kgxhhjjPc7j4j93KNnRvQxyDiaNyDEiQpyMVRHi20WVUgeNT7+DNkaI63Yl0UVf1ka63LyhTHGGOO5nSJiP/fomRF9jDCOFKo98BjRCxXlUKgWXoLCqNtQqDYmW4VqRShWizHGGM/s8jM9Mnf3/QvVjvhZfQTmKzu9wwrb8dFimydVSB41Pv4M2RojrdiXJ1X8ZWmsy2+0MMYYYzy3U0Ts5x49M6KPQcbRvAEhTlSQi+GG6JP8sqiiP/+gp3a5yot5XFQhZPKwqOIvS2OdT748TAQxxhhjvN95ROznHj0zoo9BxtG8ASFOVJCLYXc8PamiG3/Okyr25yBa9vR36zXa+Pef+Xx4uxbKyRfGGGOM53aKiP3co2dG9DHCOFJT5cBjRP+dupdINVV+uj5sW9Yr2aofQU2V/pythsee/h5RU6Vn+2Af1FTBGGOMY7v8TI/M3T01VWoxX9npHVbY+id/+sP6KRC9oa3E5hxEy57+br1GG//+M58Pb9dC+Y0WxhhjjOd2ioj93KNnRvQxyDiaNyDEiQpyMewOv/5DbjkH0bKnv1uv0ca//8znw9u1kE++PEwEMcYYY7zfeUTs5x49M6KPQcbRvAEhTlSQi2F3WFQht5yDaNnT363XaOPff+bz4e1aKCdfGGOMMZ7bKSL2c4+eGdHHIONo3oAQJyrIxbA7LKqQW85BtOzp79ZrtPHvP/P58HYt5JMvDxNBjDHGGO93HhH7uUfPjOhjhHE8RaHaEVwoVCtfvhZ5++aNvHv3kUK1J+dshVEpVAuJrUK11sX1MMYYY9zu/HM9Mnf3FKqtxXxlJ0IirLC1hCdVyC3nIFr29HfrNdr495/5fHi7Fpa+1cIYY4zxnM4jYj/36JkRfQwyjuYNCJEgF8PusKhCbjkHfqMVeb6fZv+vtu9b++kN+8Y9H/NlaazLyRfGGGOM53aKiP3co2dG9DHIOJo3IERaLwYVUan6gc5n0qLKLwsWdm3ZGksPbYyerXPgOy+9V5f305X/3n7P1/157d+591jkuCyNdT758jARxBhjjPF+5xGxn3v0zIg+BhlH8waEOFGtx1AH49SS/OkP66dAtsbyehUVnlQZdA6sF0huW0zRnW3OX1f7d2ztt+fv3Husnnk49nmy1N9y8oUxxhjjuZ0iYj/36JkRfYwwjqcoVHsZUPzm0liodvZCkrcWqs0LPN3K97/bPpeXv33YfP1L+0Ab33/7R7m8/7N1M6pJ7f3+2z8++7Oafnz37Tfyp/cfnv13zTGX+Mff/6/8+PGhoPLbN2+mLlQ7+73tVrYK1YpQrBZjjDGe2eVnemTu7vsXqo2C+cpO78ywwqYOxqklt9RUyVd3b83nT69UrqKfP73a/XfIz0+qtLSDxMvnT69URB+vrXK75nV7XvPSfuk91Xp/sLy/zH5vO6K/+TlN2xhjjDGe1yki9nOPnjlDHw+KeQO6Z8TF0HoMdTBOLRm5qJKy9+9gQYUspby2aq+1fL89r3lpv/Sear0/WN5fZr+3HdHf8rym/4cxxhjj+ZxHxH7u0TNn6ONBMW9AiLRecOqgDy1pWVTJx2/L+Q+jt7wO4y1vLarUvK72+nxpvzzpPZW8N62vn/XYXvq7936HMcYYY59OEbGfe/TMGfp4RE5RU2UEF2qqVNdUyX8X0fp3IjH26MR3335DTZXJoKYKxhhjHNvlZ3pk7u7711S5DKh/OgLzlZ0IaV3FUwd9aMmoJ1Uwju486T2VvDetr5/12F76y/0OY4wxjuUUEfu5R8+M6GOQcTRvQIi0XgzqoA8tSYsq+T+t/NJY5TcijPHyB7XKMfeH1tfPemwv/c3PKfc/jDHGeG7nEbGfe/TMiD4GGUfzBoQ4Ua3HUAfj1JJ8MYUnVTA+5oNa5Zj7Q+vrZz22l/4u3e+4/2GMMcbzOkXEfu7RMyP6GGQczRsQ4kS1HkMdjFNL9v76Tz52GOOn74/0nkrem9bXz3psL/3Nz+nSeeZ+iDHGGM/jPCL2c4+eOUMfj8gpCtVeBhS/uVCodlehWhGKNmK8VvyMQrXzsVWoduu8W19/GGOMMd52/rkdmbv7/oVqo2C+stM7I1bYWo+hDsapJTypgvHx34Ck91Ty3rS+ftZje+nv0rdaW998ebgOMcYYY/zceUTs5x49c4Y+HhTzBnTPiIuh9RjqYJxawr/+g/HxH9TpPZW8N62vn/XYXvq7537H/RFjjDH26xQR+7lHz5yhjwfFvAHdM+JiaD2GOhinlvCkCsbHf1Cn91Ty3rS+ftZje+lvfk73XAfcLzHGGGM/ziNiP/fomRF9DDKO5g0IcaJaj6EOxqklPKmC8fEf1Ok9lbw3ra+f9dhe+nvE/Y77JcYYY+zHKSL2c4+eGdHHCONIodoDj9FSqGj2Yo6pUO1P14ft2kK11kWmMPboBIVq52OrUK3I/vteifV1ijHGGJ/R5WdxZO7u+xeqHfGz+gjMV3Z6Z4YVNnUwTi25Xn95QoUnVTBu/+bj8p4nVWbMUn973O+4f2KMMcZ2ThGxn3v0zIg+BhlH8waEOFGtx1AH49QSaqpgfPwHdXpPJe9N6+tnPbaX/ubntMd1wv0UY4wxHuc8IvZzj54Z0ccg42jegBAnqvUY6mCcWkJNFYyP/6BO76nkvWl9/azH9tLfEfc77qcYY4zxOKeI2M89emZEHyOMIzVVDjxGy+/UzV53INVUefvmjbx795GaKhgf8Lu61FSZj541VW75He+ex8EYY4zP7PKzNjJ399RUqcV8Zad3ZlhhUwfj1BKeVMH42G8+Lu95UmXGLPXX4n7H/RVjjDHu5xQR+7lHz4zoY5BxNG9AiBPVegx1ME4toaYKxsd/UKf3VPLetL5+1mN76W9+Ti2uI+63GGOM8XHOI2I/9+iZEX0MMo7mDQhxolqPoQ7GqSU8qYLx8R/U6T2VvDetr5/12F766+F+Z318jDHGOJJTROznHj0zoo9BxtG8ASFOVOsx1ME4tSQtquT/tPJLY5XfiDDGyx/UKsfcH1pfP+uxvfQ3P6cerivrdmCMMcYzO4+I/dyjZ0b0McI4nqJQ7QguFKoVEZEffritUK0IxRQxXit+RqHa+dgqVGt9fZXXmXU7MMYY4xmdf45G5u6eQrW1mK/sREjrCps66ENLqKmC8fHfgKT3VPLetL5+1mN76e/St1oe7LVdGGOMsWfnEbGfe/TMiD4GGUfzBoRI68WgDvrQEmqqYHz8B3V6TyXvTevrZz22l/7OcL/z3j6MMcbYk1NE7OcePTOij0HG0bwBIdJ6MaiDPrSEJ1UwPv6DOr2nkvem9fWzHttLf/Nz6uH62rruvLcTY4wxtnQeEfu5R8+M6GOQcTRvQIgT1XoMdTBOLeFJFYyP/6BO76nkvWl9/azH9tLfGe93s7UXY4wxHukUEfu5R8+M6GOEcTxFodrLgOI3FwrVypevRd6+ua1QrXWRKYw9OkGh2vnYKlQrMs99r8S6PRhjjLEHl5+Nkbm771+oNgrmKzu9M8MKmzoYp5bwpArGx37zcXnPkyozZqm/Ee53s7cfY4wxPtIpIvZzj545Qx8PinkDumfExdB6DHUwTi1JiyrXKzVVMG51isox94fW1896bC/9zc+ph+trr6P0A2OMMW5xHhH7uUfPnKGPB8W8ASHSesGpgz60JF9M4UkVjI/5oFY55v7Q+vpZj+2lvxHvd9H6gzHGGN/iFBH7uUfPnKGPB8W8ASHSesGpgz60hH/9B+PjP6jTeyp5b1pfP+uxvfQ3P6cerq+jHLVfGGOM8UvOI2I/9+iZEX2MMI6nKFQ7gguFancVqhWh+CHGa8XPKFQ7H1uFaq2vr97XrXU7MMYY4xHOP/cic3ffv1DtZcA/KjMC85WdCGldYVMHfWgJT6pgfPw3IOk9lbw3ra+f9dhe+rv0rVZEn6WfGGOMz+08IvZzj54Z0ccg42jegBAnqvUY6mCcWsK//oPx8R/U6T2VvDetr5/12F76e8b73dn6izHG+FxOEbGfe/TMiD4GGUfzBoQ4Ua3HUAfj1BKeVMH4+A/q9J5K3pvW1896bC/9zc+ph+trlM/ab4wxxrGdR8R+7tEzZ+jjETlFTZXLgN/TulBThZoqGB/4O7oi1FSZkbPWVKm9rq3bgTHGGB/h/HMtMnf3/WuqRMF8Zad3RqywtR5DHYxTS9KTKvk/rfzSWOWruxjj5W9AVI65P7S+ftZje+nv0rdaZzTjgDHGOILziNjPPXrmDH08KOYN6J4RF0PrMdTBOLUkX0yhpgrGx3xQqxxzf2h9/azH9tJf7nfr17l1OzDGGOM9ThGxn3v0zBn6eFDMG9A9Iy6G1mOog3FqCTVVMD7+gzq9p5L3pvX1sx7bS3/zc+rh+vJixgVjjPGMziNiP/fomRF9DDKO5g0IcaJaj6EOxqkl/Os/GB//QZ3eU8l70/r6WY/tpb/c7+qve+t2YIwxxjVOEbGfe/TMiD5GGEcK1R54jJZCRbMXc9xbqNa6yBTGHp2gUO18bBWqFeG+t3XdM04YY4w9u/ysiszdff9CtSN+Vh+B+cpO78ywwqYOxqklPKmC8bHffFze86TKjFnqL/e7/e8D63ZgjDHGS04RsZ979MyIPgYZR/MGhDhRrcdQB+PUEmqqYHz8B3V6TyXvTevrZz22l/7m59TD9TWLGTeMMcYenUfEfu7RMyP6GGQczRsQ4kS1HkMdjFNLeFIF4+M/qNN7KnlvWl8/67G99Jf73XHvC+t2YIwxxpf3LKrMdowBMW9AiBPVegx1ME4tSYsq+T+t/NJY5TcijPHyB7XKMfeH1tfPemwv/c3PqYfra1YzjhhjjD04j4j93KNnRvQxwjhSqPbAY7QUKpq9mOO7dx9FROSHH24rVCtCMUKM14qfUah2PrYK1VpfX1HMeGKMMbZ0/jkUmbt7CtXWYr6y0zszrLCpg3FqCTVVMD7+G5D0nkrem9bXz3psL/1d+lYLH/c+YVwxxhiPdB4R+7lHz4zoY5BxNG9AiBPVegx1ME4toaYKxsd/UKf3VPLetL5+1mN76S/3u3HvG+t2YIwxPodTROznHj0zoo9BxtG8ASFOVOsx1ME4tYQnVTA+/oM6vaeS96b19bMe20t/83Pq4fqKasYZY4zxCOcRsZ979MyIPkYYx1PUVBnBhZoq8uVrkbdvqKmC8RG/oytCTZUZoaaKDzPeGGOMezr/nInM3T01VWoxX9mJkNYVNnXQh5bwpArGx38Dkt5TyXvT+vpZj+2lv0vfauFx7yPGHWOM8ZHOI2I/9+iZEX0MMo7mDQiR1otBHfShJdRUwfj4D+r0nkrem9bXz3psL/3lfmdvxh9jjPGRThGxn3v0zIg+BhlH8waESOvFoA760JK0qHK98qQKxq1OUTnm/tD6+lmP7aW/+Tn1cH2d1ZwHjDHGRziPiP3co2dG9DHIOJo3IMSJaj2GOhinluSLKTypgvExH9Qqx9wfWl8/67G99Jf7nT9zPjDGGLc4RcR+7tEzI/oYYRxPUaj2MqD4zYVCtbsK1VoXmcLYk0soVDsfW4VqRbjveXGJdXswxhjP4fKzIzJ39/0L1UbBfGWnd2ZYYVMH49SSlpoqSyytCCfy//8SW/ul/18ep/z/a+3BuMc3Hp8/vXpMek8l703r62c9tpf+lt9obd2vyv2W7oNb9821P1+7n539PpefH4wxxnjLKSL2c4+eOUMfD4p5A7pnxMXQegx1ME4tafnXf5Z+oFia4C/94FD++S3/f+045f9/6fUYH+3Pn16pPLydfn5P/eK9Se9Ni1ge20t/83veS/e38np4acGl9v51xH3yLC5j3R6MMcY+nUfEfu7RM2fo40Exb0CItF5w6qAPLWl9UqW8YR31A8bWDwo1P2Cc/RtcPNb5UyrpPZU8Y2Zu+1H9LSdfPReSt+5XPKlS5/x8YYwxxqVTROznHj1zhj4eFPMGhEjrBacO+tCS3k+q1Dw50usHjJKl45asHQ/jrQ/m8ld/ROa+P8zc9qP6m5/jtftOed+oWdjtuZD80v1s6X74Uvtf+vuX+uPlPlrGuj0YY4x9OI+I/dyjZ0b0McI4nqJQ7QguFKrdVahWROS7b/74bJ8/ffjzk6JQP/74o7x9+1bu7v9Nvvvmj8/+fO3/569bKjb1448/rrZz7Xj5dvn3bx0P47ViZ2n7668+yK9/809R+eLxnjDz/WHmtu9hq1Dt2n2nvG+8dJ956X6zdn/M/3yNmvtazf1wzTWvz9vh4f259j7FGGN8buefC5G5u+9fqPYy4B+VGYH5yk6EtK6wqYM+tCQ9qZL/08ovjVW+urv1hMka5crx1t+z5JpvgG/5BnnreBhvOS9Um94zOvj9fGRmbvtR/S2/1dq6f61RXi+198GaP6+9r9XcD9ec9l/rl/f7Zxnr9mCMMbZxHhH7uUfPjOhjkHE0b0CIE9V6DHUwTi3JF1OOrqnSsoAy4geMHA83ejy3WVSZO0v9LSdfW/evlvvb1n1o7c9vXTh56XVr3mrf1v3ak/PziTHG+HxOEbGfe/TMiD4GGUfzBoQ4Ua3HUAfj1JKeNVVaF1Bemqgf/QMGxns/kJPzf/0n5eG9tf9f/7HMzG3f39/1e17N/at1AWXPwsWtCydrr1v68637+az30zLW7cEYYzzGeUTsfw7rmTP08YicoqbKZcDvaV2oqdKlpspLNUpe+t38cv+yhsEttQrK9i3VMHjpzzHe+l3c/P9//dWHxz/7w7//VkTmvj/M3PajKM/3SzVVtu5jtTWc1u5LNTWp1u6XS/fTrZoua7Wulv7+mWtS5efXQ3swxhj3dX7fj8zdff+aKlEwX9npnRErbK3HUAfj1JKWJ1Vucf6rEdYr1eU3sPn/t2wXnt/ltx/pvTVjZm77USnvXdbX15Zne2LEi8tYtweP90zvc4zxfucRsZ9n9MwZ+nhEeFLFyTFURL44rjnDuV5Fvnz90IfrVeT16/V9L+8/rP/hBvm3+H/5q+2qafoGduv/AdxCfo3/+jf/IyJz3x9mbvtRXN5/cHXv2oL7GMA+ZnqfA8AxRH+KY8TP0RH4lXUDICjX9Vi/Mb//3THH/9OHP8t33/zxSQCO4Ne/+af8+jf/lF8WwGFmrO95AHA83/3ved/XM7cdwBN8vh9DyxfuXvgX6wZAHL64ZhtrT6qkhRXZdxP6/v9lGw2LI2lh5fK3tjcx3+ZCDz5/+l8i8suTKmd/0iMCf/nrN78s6P7uG7mKyH823n96wX0NYB88nQJwHlhQgRwWVQ7kTUsxxo8f215vzkcReVgzefof/Xnzc1Hcj+8+Pv73EunPc0cvLgXz8Y+///bxv6e+JfzMF+8+WjfBBUsLyUc9NQcA4/nuv+YtUPnd7+dtO4AX5v65DY6GRZUD+fix7YeH1tdb8u7dwzrKa/l5PeWlJ1VeqLdS9ef533/Nxu2jyMfrx/XXZ3/+UT6KvJt7zAGmgLfYMlv3OgBwzcMThJPe4H7P/AcA6sj/pSNYh0UVOIzX2ULH+k7y8g8TtX+eH6M83tZTMuXCDAAAAAAAAMAOWFSBw7j+vFjxWqR+YWPvnydYGAGAyUj3ysd7JvcxAAAAgGlhUQUOgR8KAAAAAAAA4GywqHIg5y5UCwAAdTzUMvjhhzfy7h33fgAYDfcdAIAjYVHlQM5cqBYAAOp49y493fdR3lEwGwBGQ6FaAKiEQrV1/Mq6AQAAAAAAAAAAM8KiCgAAAAAAAADADk7x6z/ff/vNkONQUwUAALbJ7/fc+wFgNNx3AACO5BSLKqOgpgoAAGyR11GhpgoADIeaKgBQCTVV6phyUeXy/sPjf496CgUAAAAAAAAAIGfKRZWvv/qQ/fcr+ctff1lYYZEFAABm4Hq1bgEAAAAAtDLlokrJ1iLL5f0H+f53nRdb/iYiDRPkL0REXh/UFgAAcM31+vDPKrOwAgAAADA3IRZVSp4vssjTBYurHL+A8V7kzQ+NRb+oGQYAcAI+yg8/vJGHOpEUjASA0XDfAQA/RPhNk5CLKs+fVJE+CykFFP0CAIAtKFQLAKZQqBYAKqFQbR0hFlWe11RZWe1Kj1nzazYAAAAAAAAA0MiUiyrViyhP9gEAAAAAAAAAOI4pF1VYJAEAAAAAAACYm8v7D9P/fD/loopXKPoFAADb5EUiKRgJAKPhvgMAcCQsqhwIRb8AAGCLVJw2/XPKfHYAwFAoVAsAlVCoto5fWTdgBJf3H7Z3AgAAGMT1KvKaoukAAAAA03OKRRUAAABPsKACAAAAEKNe6hciotaN6M2I4jc8DQMAAAAAAACRiLDo0RtqqhwEFxsAANSQ/+oPvwYEAKPR/xD54g/WrQAAiAO//gMAAAAAAAAAsAMWVQAAAAAAAABgOBHKaLCoAgAAAAAAAACwAxZVAAAADLherVsAAAAAAK2wqAIAADAYCtQCAAAAxIBFFQAAgMGwoAIAAAAQAxZVAAAAAAAAAAB2wKIKAAAAAAAAAMAOWFQBAAAAAAAAANgBiyoAAAAAAAAAADtgUQUAAAAAAAAAYAcsqgAAABhwvVq3AAAAAABaOcWiyvfffmPdBAAAgEeuV/5ZZQAAAIAInGJRBQAAwBMsqAAAAADEgEUVAAAAAAAAAIAdsKgCAAAAAAAAALCDUyyqXN5/sG4CAAAAAAAAAATjX6wbAAAAcBbSv/jDv/wDAAAAEOMflWFRBQAAYDCvX7OwUkvNOFH4F2B+eK8DwKywqAIAADCa68p/wyLlz1FpyFicAohF/p4uF1B4rwOAV06xqBLhkSIAAIhDvijw4k78+fJ+/HAFAAAATjjFogoAAIAnHr+NfWlhYW1B4Wx/XnC9/rwYdeWba4C9/Me//qt1E57xX78XuV7/+3Gx+fG9DgChubz/MP1DECyqAAAADOZ6zdYSthYGzv7n2T6PazA//8drYWEF4Fa++IOIyH9bN+MZ5SJKWnxmYQUAvPOFiKh1I0bQ+s8ql6tn5d+39eccj+NxPI7H8Tgex2s/3v/53dM//8+/xeofx+N4Zz3e9fr8/Zy/31+/nrt/HI/jcbz1v2/2J1VOs6gCAAAAc3N5/0G+/uqD/OWv30w/AQOAl/n86ZX8+jf/Y90MAIBNfmXdAAAAAIAavv6q7VsyAJiD9A126zfjAAAjYFEFAAAA3JP/cPX1Vx/4YQsAAABcwKIKAAAAuIenVADOA+93AJgJFlUAAADANUtPpfC0CkB8WFwBgBlgUQUAAABcs/aDFcVqAeJRLpayeAoA3mFRBQAAAFzzl78uL57wwxYAAABYw6IKAAAAuGbpiRT+WWWAmPArPwAwGyyqAAAAgHvWnlYBgNiwyAIA3mFRBQAAANyTP5XCUyoAMVn7lT5+1Q8APMOiCgAAAEwBT6sAAACAN74QEbVuBAAAAEANl/cfeEoFIChrT6TwngcAz7CoAgAAAAAAAACwA379BwAAAAAAAABgByyqAAAAAAAAAADsgEUVAAAAAAAAAIAdsKgCAAAAAAAAALADFlUAAAAAAAAAAHbAogoAAAAAAAAAwA5YVAEAAAAAAAAA2AGLKgAAAAAAAAAAO2BRBQAAAAAAAABgByyqAAAAAAAAAADsgEUVAAAAAAAAAIAdsKgCAAAAAAAAALADFlUAAAAAAAAAAHbAogoAAAAAAAAAwA5YVAEAAAAAAAAA2AGLKgAAAAAAAAAAO2BRBQAAAAAAAABgByyqAAAAAAAAAADsgEUVAAAAAAAAAIAdsKgCAAAAAAAAALADFlUAAAAAAAAAAHbAogoAAAAAAAAAwA5YVAEAAAAAAAAA2AGLKgAAAAAAAAAAO2BRBQAAAAAAAABgByyqAAAAAAAAAADsgEUVAAAAAAAAAIAd/H9FKB5kURthvwAAAABJRU5ErkJggg==;" vertex="1" parent="1">
          <mxGeometry x="220" y="70" width="1109" height="1197" as="geometry" />
        </mxCell>
        <mxCell id="tjEmJSkW9mlfIm7XRwi4-2" value="&lt;font&gt;&lt;span style=&quot;color: rgb(255, 255, 255); background-color: rgb(0, 0, 0);&quot;&gt;sel[0:3]&lt;/span&gt;&lt;/font&gt;" style="text;html=1;align=center;verticalAlign=middle;whiteSpace=wrap;rounded=0;fontSize=20;" vertex="1" parent="1">
          <mxGeometry x="560" y="72" width="110" height="20" as="geometry" />
        </mxCell>
        <mxCell id="tjEmJSkW9mlfIm7XRwi4-3" value="&lt;span style=&quot;color: rgb(255, 255, 255);&quot;&gt;&lt;span style=&quot;color: rgb(255, 255, 255);&quot;&gt;vsens&lt;/span&gt;bat&lt;/span&gt;" style="text;html=1;align=center;verticalAlign=middle;whiteSpace=wrap;rounded=0;fontSize=20;" vertex="1" parent="1">
          <mxGeometry x="810" y="73" width="110" height="20" as="geometry" />
        </mxCell>
        <mxCell id="tjEmJSkW9mlfIm7XRwi4-4" value="&lt;span style=&quot;color: rgb(255, 255, 255);&quot;&gt;vbattemp&lt;/span&gt;" style="text;html=1;align=center;verticalAlign=middle;whiteSpace=wrap;rounded=0;fontSize=20;" vertex="1" parent="1">
          <mxGeometry x="970" y="73" width="110" height="20" as="geometry" />
        </mxCell>
        <mxCell id="tjEmJSkW9mlfIm7XRwi4-5" value="&lt;span style=&quot;color: rgb(255, 255, 255);&quot;&gt;iforcedbat&lt;/span&gt;" style="text;html=1;align=center;verticalAlign=middle;whiteSpace=wrap;rounded=0;fontSize=20;" vertex="1" parent="1">
          <mxGeometry x="1210" y="560" width="110" height="20" as="geometry" />
        </mxCell>
        <mxCell id="tjEmJSkW9mlfIm7XRwi4-6" value="&lt;span style=&quot;color: rgb(255, 255, 255);&quot;&gt;vin&lt;/span&gt;" style="text;html=1;align=center;verticalAlign=middle;whiteSpace=wrap;rounded=0;fontSize=20;" vertex="1" parent="1">
          <mxGeometry x="970" y="1240" width="110" height="20" as="geometry" />
        </mxCell>
        <mxCell id="tjEmJSkW9mlfIm7XRwi4-7" value="&lt;span style=&quot;color: rgb(255, 255, 255);&quot;&gt;pgnd&lt;/span&gt;" style="text;html=1;align=center;verticalAlign=middle;whiteSpace=wrap;rounded=0;fontSize=20;" vertex="1" parent="1">
          <mxGeometry x="730" y="1240" width="110" height="20" as="geometry" />
        </mxCell>
        <mxCell id="tjEmJSkW9mlfIm7XRwi4-8" value="&lt;span style=&quot;color: rgb(255, 255, 255);&quot;&gt;en&lt;/span&gt;" style="text;html=1;align=center;verticalAlign=middle;whiteSpace=wrap;rounded=0;fontSize=20;" vertex="1" parent="1">
          <mxGeometry x="220" y="1180" width="40" height="20" as="geometry" />
        </mxCell>
        <mxCell id="tjEmJSkW9mlfIm7XRwi4-9" value="&lt;span style=&quot;color: rgb(255, 255, 255);&quot;&gt;dgnd&lt;/span&gt;" style="text;html=1;align=center;verticalAlign=middle;whiteSpace=wrap;rounded=0;fontSize=20;" vertex="1" parent="1">
          <mxGeometry x="230" y="900" width="40" height="20" as="geometry" />
        </mxCell>
        <mxCell id="tjEmJSkW9mlfIm7XRwi4-10" value="&lt;span style=&quot;color: rgb(255, 255, 255);&quot;&gt;dvdd&lt;/span&gt;" style="text;html=1;align=center;verticalAlign=middle;whiteSpace=wrap;rounded=0;fontSize=20;" vertex="1" parent="1">
          <mxGeometry x="230" y="570" width="40" height="20" as="geometry" />
        </mxCell>
      </root>
    </mxGraphModel>
  </diagram>
</mxfile>
